<svg id="Layer_1" data-name="Layer 1" xmlns="http://www.w3.org/2000/svg" viewBox="0 0 75 107.5"><defs><style>.cls-1{fill:#160f29;}</style></defs><path class="cls-1" d="M64,10.5A32.54,32.54,0,0,1,96.5,43c0,13.84-20.74,45.36-32.5,61.6C52.24,88.36,31.5,56.85,31.5,43A32.54,32.54,0,0,1,64,10.5m0-5A37.5,37.5,0,0,0,26.5,43c0,20.71,37.5,70,37.5,70s37.5-49.29,37.5-70A37.5,37.5,0,0,0,64,5.5Z" transform="translate(-26.5 -5.5)"/><path class="cls-1" d="M64.5,22A21.5,21.5,0,1,1,43,43.5,21.52,21.52,0,0,1,64.5,22m0-5A26.5,26.5,0,1,0,91,43.5,26.49,26.49,0,0,0,64.5,17Z" transform="translate(-26.5 -5.5)"/></svg>