<svg data-name="Infinity Gauntlet" xmlns="http://www.w3.org/2000/svg" viewBox="0 0 643.46 483.59"><path d="M135.82,510.14l0,0h0Z" transform="translate(1.36 -109.4)" style="fill:#060503"/><path d="M88.18,454.17c-2.09-3.49-8.63-5.16-12.44-3.59-5.92,2.44-10.45,7-16.06,10-6.2,3.28-12.06,7.25-18,10.94-7.67,4.71-15.25,9.59-22.86,14.41C12.31,490,5.82,494-.64,498.12c0,1.31,0,2.62,0,3.93,4.11-2.62,8.23-5.21,12.47-7.63,7.7-4.39,14.82-9.77,22.56-14.18,6.95-4,13.49-8.65,20.36-12.8C62,463,68.88,458,76.43,454c3.53-1.85,7.15-1.24,8.56,1.43,1,2-.79,5.21-3.76,7.23-1.75,1.19-3.83,1.32-5.63,2.49-6.93,4.51-14.25,8.42-21,13.12-9.14,6.31-18.65,12-27.83,18.27-1.83,1.24-3.42,2.94-5.37,3.91-7.77,3.88-14.69,9.14-22,13.68,0,1.44,0,2.89,0,4.33,8.08-5.35,16.1-10.79,24.32-15.95,7.94-5,15.71-10.22,23.55-15.36,5.92-3.87,11.84-7.79,17.79-11.62s12-7.91,18.58-10.82C87,463.25,89.62,456.58,88.18,454.17Z" transform="translate(1.36 -109.4)" style="fill:#060503"/><path d="M489.44,507.71h0Z" transform="translate(1.36 -109.4)" style="fill:#060503"/><polygon points="558.61 363.03 558.62 363.02 558.61 363.01 558.61 363.03" style="fill:#060503"/><path d="M0,421.46q-.16,3-.35,6l.49-.16c0-2-.06-3.89-.11-5.84Z" transform="translate(1.36 -109.4)" style="fill:#060503"/><path d="M640.53,270.93c-.5-2.62-.65-6-3.52-7.2a30.47,30.47,0,0,1-5.81-3.6c-4.23-3.05-9.19-3.34-14-3.43-6-.13-12.1.26-18.16.6a135.28,135.28,0,0,0-32.83,6.31c-9.37,2.93-18.62,6.42-27.73,10.23-8.4,3.51-16.74,7.15-25.1,10.74-5.45,2.35-10.75,5.11-16,7.85-9.92,5.16-19.49,11-29.21,16.58-4.92,2.82-9.82,5.6-15.28,7.41-2.32.78-3.79.58-5-1.27-1.46-2.16.91-3,1.9-3.61,6.33-3.81,12-8.59,18.23-12.52,8.53-5.34,16.82-11.08,25.36-16.43s17.58-10.08,26.39-15.07c8.56-4.86,17.34-9.2,26.2-13.45,8-3.82,16.21-7.25,23.82-11.64,9.19-5.28,18.93-10,26.58-17.65,6.56-6.61,13.82-12.69,15.37-22.72.74-4.81.84-9.79-1.52-13.82-2.68-4.58-8.18-6-13-7.54a13,13,0,0,0-4.86-.95,137.43,137.43,0,0,0-20.58,3.11,273.87,273.87,0,0,0-35.56,10c-11.26,4.08-22.67,8-33.31,13.76-2.7,1.48-5.71,3.12-9.18,3.61a33.92,33.92,0,0,0-11,3.61c-9.9,5.3-19.72,10.79-29.29,16.67-7.22,4.43-14.61,8.51-22.08,12.46-.75.39-1.26.8-1.74-.14a1,1,0,0,1,.72-1.42c1.85-.43,2.83-1.93,4.1-3.07,7.38-6.58,14.17-13.75,23-18.69,6.93-3.87,13.67-8.15,20.55-12.17s13.58-7.78,20.32-11.74c8.7-5.13,17.59-9.92,26.3-15,5.93-3.48,12.06-7,17-12,6.13-6.22,14.39-10.43,17-20.06,1.53-5.75,2.17-11.1.67-16.76l-6.29-6.29c-5.05-.32-9.93-2.07-15.08-1.6-6.4.58-12.6,2.17-18.85,3.55-9.09,2-17.78,5.4-26.75,7.87a83.33,83.33,0,0,0-14.81,6.12c-9.66,4.82-19.29,9.8-28.49,15.44-8.78,5.38-17.74,10.47-26.47,15.94-3.58,2.24-7.27,4.58-11.62,6.86a6.54,6.54,0,0,1,4.37-4.94,16.42,16.42,0,0,0,3.8-2.14c5.71-3.75,11.23-7.86,17.25-11,9.17-4.8,17.49-10.91,26.24-16.34,4.37-2.71,5.84-8.07,9-11.93,2.39-2.87,2.73-6.27,2.3-10-.61-5.43-4.46-8.22-8.45-10.23-5.44-2.74-11.48-4.34-17.75-3.51a91.73,91.73,0,0,0-15.74,3.51c-9.21,2.94-18,7-26.86,10.72a67.47,67.47,0,0,0-9.39,5c-5.7,3.54-11.52,6.92-17.21,10.47q-15.75,9.81-31.37,19.82c-3.58,2.3-7.57,3.75-12.4,1.87-2.95-1.15-6.67-.21-10,1-7.15,2.73-13.5,6.77-19.94,10.88-7.2,4.6-12.93,10.82-19.63,15.9C272.9,198,262.32,209,250.58,218.66c-18.13,14.87-35.44,30.45-50.51,48.49-6.9,8.25-14.43,16.08-23.52,21.93a100.23,100.23,0,0,1-26.79,12.49c-9.78,2.79-19.8,3.46-29.67,5.27-5.79,1.06-11.53,2.42-17.21,4-3.8,1-10.94,11.35-10.58,14.92.23,2.24,2.44,3.26,3.8,5.09-4.35,3.1-9.38,4.59-14.08,6.59-3,1.25-6,2.55-8.84,3.91-6.61,3.2-13.37,6.09-20.07,9.06-9.69,4.3-19.37,8.62-29,13.14C16.68,367,9.09,370.29,1.66,373.91l-1.94.93c-.24,2.82-.58,5.64-.79,8.46l2.2-1c0-2.42-.06-4.83-.13-7.26.07,2.43.11,4.84.13,7.26q8.45-4,16.89-7.92c9.36-4.34,18.85-8.4,28.21-12.73,10.38-4.79,20.76-9.55,31.26-14.07,8-3.45,15.79-7.51,24-10.57,1.77-.67,3.74-2.3,5.84-1.13,1.89,1.06,2.94,6.92,1.88,8.85-2.89,5.33-6.58,10.22-8.75,16-.5,1.32-1.72,2.81-3.15,3a55.34,55.34,0,0,1-9.39.75c-10-.57-19.91-2.62-30-2.1-3.54.18-5.76,2-5.71,5.37,0,3.18,1.92,4.75,5.72,4.39,3-.28,3.94,1.34,4.17,3.83a21.57,21.57,0,0,1,0,2.54,57.82,57.82,0,0,0,5.42,13.23A9.44,9.44,0,0,0,74.38,397c1,.16,1.84,1.08,2.76,1.66.49,0,1.16.19,1,.66-.22.7-.68,0-1-.1-3.3,2.67-7.55,2.64-11.34,3.85-6.43,2.05-13.07,3.43-19.59,5.25-6.88,1.92-13.61,4.47-20.58,5.94a208.06,208.06,0,0,0-23.43,6.53L0,421.45c0,1.95.08,3.89.11,5.84,1.31-.42,2.61-.85,3.9-1.31,6-2.14,12.18-3.28,18.16-5.35,6.85-2.37,14-3.86,21-5.77S57.43,411,64.52,409c5.72-1.63,11.4-3.38,17.07-5.16a6,6,0,0,0,4.23-4.34c.48-2.21-1.73-3.08-3.06-4.18a7.7,7.7,0,0,0-4.19-2.13,1.9,1.9,0,0,1-2-1.95c2-.21,4-.5,6-.64A103.49,103.49,0,0,1,106.35,392c.83.14,1.9,0,2.19,1s-.77,1.42-1.29,2.06c-3.27,4.06-8.45,5.68-12,9.59C90.64,409.84,84.41,413,78,415.47c-6.79,2.65-13.3,5.91-19.84,9-5.24,2.53-10.7,4.6-16,7.08-6.44,3-13,5.91-19.43,9-6.69,3.23-13.48,6.29-20.22,9.33L.14,451.05c0,1,0,2.07,0,3.1,2.43-1,4.87-2.1,7.28-3.21,6.19-2.85,12.31-5.86,18.5-8.68,7.59-3.45,15.19-6.95,23-10,6.66-2.61,12.8-6.55,19.46-9.17,3.11-1.22,5.79-3.22,8.91-4.17a46.39,46.39,0,0,0,11.86-5.42c5.36-3.53,10.23-7.88,15.45-11.7,2.77-2,5.26-4.46,7.87-6.72.56-.49,1.09-1.06,1.94-.74,5.89,2.19,12.24,3.49,16.9,8.17,1.44,1.46,3.81,2.55,3.9,4.71.09,2.37-2.88,1.77-4.14,3l-.28.25c-10.07,9.92-20.27,19.72-28.83,31-.22.3-.34.66-.53,1-2.38,3.86-1.11,6.5,3.49,6.74a144.31,144.31,0,0,0,27.94-1.67c7.16-1,14.36-1.56,21.51-2.55,2.39-.33,2.76.74,3.16,2.38,1.1,4.51.49,9.18,1.22,13.76.33,2.05.24,5.46-3.4,6-3.12.43-6.34.55-9.37,1.11-8.5,1.56-17.46,1.1-25.32,5.75-3.95,2.33-8.6,3.74-11.9,6.88C93.83,495,79.2,509.41,64.53,523.77c-7.52,7.36-15,14.75-22.38,22.26-10.26,10.46-22.2,19.12-32,30.09-2.72,3-6.44,5.4-8.42,8.82-.74,1.25-1.3,1.79-1.8,1.91.28,1.32.6,2.62,1,3.92l.06.06v0L3.16,593H5.22c-2.36-2.32-2.28-3.67.21-6.14,29.84-29.61,59.41-59.5,89.75-88.6,6.2-5.95,13.59-10.52,19.23-17.08a7,7,0,0,1,1.23-.8,47.32,47.32,0,0,1,22.24-8.48c4.13-.55,8.34-1.95,12.62-.78v.08a2.92,2.92,0,0,1,4.28-.39c1.2,1.09-.61,1.74-1.11,2.58,1,2.75-1.4,4-2.86,4.68-5.72,2.64-10.34,6.64-14.86,10.84-.79.72-1.48,1.78-2.76.81-6.48,7.17-13.53,13.73-19.76,21.24-10.6,12.8-21.77,25.09-31.23,38.84-4.83,7-11.11,12.93-16,20.07-5.41,8-12.66,14.52-18.3,22.47l6.09-.11c4.83-5.82,10-11.35,14.42-17.61,5-7.08,11.26-13.14,16.16-20.39,4.78-7.05,11-13.07,16-20.07,7.11-9.95,16.52-18,23.72-28,4.77-6.62,12.28-10.39,18.29-15.76,1.12-1,2.38-1.84,3.57-2.75.69.93.86,1.63.29,2.3-2.88,3.39-4.7,7.36-6.64,11.32-1.35,2.74-2.05,5.71-3.55,8.36a1.64,1.64,0,0,1-.37.53,38.5,38.5,0,0,1-.92,4.57c-1.6,5-.66,6.93,4.08,9,6.59,2.84,12.3,7.13,18.14,11.21a2.12,2.12,0,0,1,.92,2.59c-2.45,5.54-.15,8.63,5.09,10.32.11,0,.19.15.28.23a1.75,1.75,0,0,1,1.69-.35c5.32,1.33,10.72,2.39,16,3.94,4.43,1.31,9,2.33,12.92,5.09,4.6,2.19,9.06,4.62,13.5,7.12a45.18,45.18,0,0,1,10.4,7.3c1.1,1.11,1.51,2,.27,3.41-4.11,4.82-8.19,9.65-12,14.74-.6.79-1.21,1.55-1.82,2.32,2.94.09,5.87.19,8.81.3,3.45-4.06,6.84-8.18,10-12.51,6-8.26,13.48-15.42,20.39-23,3-3.28,5-7.24,8.12-10.49,1.66-1.76,2.89-2.06,5.27-1.43,6.72,1.77,13.18,4.41,20.17,5.36,4.12.56,6.71-2.06,9.14-3.84,5.92-4.34,12.3-6,19.38-7.26,9.08-1.58,18.28-2.92,26.6-8.08,6.51-4,14.18-6.22,21.31-9.3,1.31-.56,1.84-.07,2.15,1,2.58,9.06,9.61,14.28,17.08,18.63,3.13,1.83,7.3,1.26,11.23-.38,6.49-2.71,11.56-7.49,17.48-11,4-2.35,8.47-2.26,12.73-2.68,5.72-.57,11.39-1.46,17.1-2,8.88-.9,17.18-4.54,26.05-5.36,3.83-.35,7.64.69,11.46,1,5.35.41,10-1.5,14.45-3.37A20.15,20.15,0,0,1,497,516c6.94,1.85,13.81.78,20.68-.15,7.52-1,15.06-2.13,22.49-3.72,4.9-1,9.61-3,14.4-4.57l3.16-3.15c2.11-4.87,5-9.42,6.51-14.56,1.85-6.08,2.65-12,.63-18.34-1.26-3.93-3.58-7.21-5.21-10.88s-4.48-7.74-8.49-9.44c-3.72-1.58-8-1.81-12.07-2.59-5.43-1.05-11-1.81-15.87-4.57a60.59,60.59,0,0,0-8.71-4.29c-5-1.84-10.56-2.1-15,.78S491,443.26,486.43,443c-8.27-.55-16.56-.83-24.82-1.45A95.89,95.89,0,0,1,445,439a77.38,77.38,0,0,1-15-5c-4.22-2-4.69-2.47-1.41-5.7a13.26,13.26,0,0,1,2.58-2.1c6.3-3.6,12.41-7.53,18.63-11.26,9.26-5.56,18.29-11.57,27.08-17.87,7.13-5.11,14.19-10.49,16.89-19.64a13,13,0,0,1,6.58-7.64c2.19-1.23,4.52-2.23,6.63-3.53,6.38-3.9,13-7.34,19.52-11,8.23-4.62,16.47-9.17,24.83-13.57q13.22-6.94,26.48-13.79c8.11-4.2,16.6-7.62,24.55-12,8.66-4.81,17.7-9.12,25.54-15.28,4.4-3.45,9.76-6,12.14-11.67.66-1.55,2.23-2.9,2.11-4.62A109,109,0,0,0,640.53,270.93Zm-178.77,50a6.7,6.7,0,0,0,2.08-.74c5.6-3.65,11.72-6.4,17.34-10,7.62-4.82,15.42-9.29,23.32-13.63,3-1.63,3.81-1.39,3.8,1.94,0,2,1.41,4.75-.84,6-7,3.85-14.24,7.25-21.33,10.94s-14.14,7.62-21.31,11.24c-1.41.72-3.29,1.92-5,.14C457.13,323.94,457.8,321.91,461.76,320.91Zm54.77-15.75c1.12-.45,2.11-.68,2.8.18,1.07,1.05,1.61,2,.53,3-1.32,1.3-2.48,3.26-4.05,3.71-4.19,1.19-7.79,3.69-11.3,5.81-9.41,5.68-19.8,9.33-29.23,15-2.66,1.58-5.65,2.82-8.4,4.39-2.93,1.68-3.33-.84-4.22-2.53-.7-1.33-1.63-2.87.43-3.72,7.08-2.92,13.41-7.27,20.43-10.35,7.36-3.23,14.29-7.43,21.53-10.95C508.73,307.9,512.71,306.7,516.53,305.16Zm-4.82-42.1c-8.06,3.72-15.29,8.87-22.84,13.46-6,3.63-11.48,8-17.45,11.57-7.62,4.57-14.37,10.38-21.95,15-4,2.4-6.33,6.6-10.43,8.79-.65.35-1.22,1-2,.32-.52-.48-.3-1.07-.14-1.7a25.91,25.91,0,0,0-1.81-18c-2.36-4.43-2.15-6.55,1-8.1,6.57-3.22,12.52-7.47,18.82-11.15q14-8.17,28-16.32c7-4.09,14.31-7.78,20.8-12.78.85-.65,2.13-2.3,3.1-1.23s2.26,2.93,1.42,4.94c2.78,3,2.75,7.23,4.25,10.8C513,259.53,513.83,262.09,511.71,263.06Zm-79.24,20.36c-1.68,1.27-3.34.81-4-.85-1.16-3-3.72-5.06-4.79-8L422.27,273c-.7-.46-1.61-.88-1.08-1.95a1.43,1.43,0,0,1,2.39-.59,74.73,74.73,0,0,1,6.84-5c7.88-4.52,15.94-8.72,23.79-13.28,9.88-5.73,20-11.06,30.12-16.25a99.59,99.59,0,0,1,14.36-6.12c3-1,5.9-3.09,9.37-1.82,4.33,1.81,4.68,3.44,1.05,7.18-6.34,6.55-14.32,10.68-22.05,15.37-10.7,6.49-21.66,12.52-32.27,19.12C447.37,274.29,439.47,278.14,432.47,283.42ZM548.67,196c9.1-2.06,17.78-5.82,27.16-6.73,3.27-1.41,6.86-1.35,10.24-2.23,6-1.57,10.85.78,15.57,3.92,2.43.79,3.24,2.62,3.49,5,.68,6.43-2.75,11.2-6.47,15.73-8.06,9.82-18.78,16.36-29.33,23-3.93,2.48-6.21,1.8-7.15-2.73-.78-3.81-3.6-6.66-3.93-10.54-.14-1.6-2.41-2.62-1.4-4.62-.66-2.34-3.64-3.78-2.59-6.77-3.29-3.41-4.33-8.13-7-11.93C546.12,196.44,548,196.18,548.67,196Zm-48.24,19.44c3.28-1.28,6.24-3.26,9.41-4.67,9-4,18.28-7.43,27.41-11.17,4.56-1.86,7.06-1.47,9,2.66,1.23,2.62,2.89,5,3.84,7.78,2.32,3.35,2.4,7.63,4.59,11,1.89,4.85,3.83,9.68,5.64,14.56.75,2,.1,3.13-2.11,4.3-9.78,5.17-20.14,9.15-29.73,14.71-3.1,1.8-6.59,2.93-9.89,4.4-1.76.78-2.65.33-3.17-1.61-1.17-4.44-2.56-8.83-3.86-13.24-2.42-4.06,0-7.21,2.28-10.07,2.46-3.14,1.67-5.67-.47-8.32-2.32-.24-4.45-1.27-7-.62-4.09,1-5.93-.76-7.81-4.84C497.25,217.55,498,216.44,500.43,215.46ZM433.57,250a8,8,0,0,0,2.47-.63c10.3-6.73,21.24-12.38,31.69-18.83,6.86-4.23,14.32-7.29,21.14-11.57,1.29-.81,3.47-1.85,4.65-.91a10.69,10.69,0,0,1,3.9,7.85c0,1.77-3,2.5-5,2.84a5.81,5.81,0,0,0-2,.86c-7.06,4-14.55,7.18-21.63,11.2-3.37,1.92-6.55,4.34-10.12,5.75-7.61,3-14.25,7.69-21.39,11.5-4.82,2.57-9.52,5.39-14.27,8.1-3.71,2.65-6.45,2.45-7.59-2.56-.07-.32-.42-.6-.69-.84-1.85-1.61-1.66-3.11.21-4.53C420.49,254,426.42,250.58,433.57,250Zm-4.11-16.79c-6.83,4.93-12.18,11.47-18.18,17.3-2.09,2-4.07,4.22-3.94,7.57a2.83,2.83,0,0,1-3.18,2.9c-3.73-.7-7.92-.79-10.23-4.7-.87-1.72-2.23-3-3.08-4.88-1.64-3.57-1.29-7.32-2.1-10.92a12.8,12.8,0,0,1,4.81-13.08q7.63-6,15.55-11.53c2.92-2,5.72-4.25,8.48-6.5a2.64,2.64,0,0,1,3-.49c2.41,1.06,6,7,5.91,9.86,2.13,2,3.28,4.59,4.62,7C432.66,228.55,432.37,231.09,429.46,233.19ZM511,136.7c4.9-1.09,9.69-2.64,14.58-3.75,5.32-1.21,10.64-2.8,16.21-1.76a5.24,5.24,0,0,1,4.67.69,8.31,8.31,0,0,0,1.73.61c3.88.52,5.29,2.72,5.07,6.56a22.15,22.15,0,0,1-2.54,8.6c-4.48,9-13.11,14.15-20.23,20.69-2.33,2.15-4,1-5.14-1.28a90,90,0,0,0-5.46-10.72c-.19-.28.14-.9.23-1.37-1.56-3-4.67-5.12-4.72-8.89-1.88-2-3.78-3.91-5.61-5.91C508.12,138.33,508.29,137.3,511,136.7Zm-29.42,11c6.94-2.73,13.88-5.48,20.82-8.2.77-.3,1.63-.77,2.37.11,2.62,3.13,6.61,5.18,7.6,9.6,1.68,2.68,4.57,4.72,4.37,8.37,1.31,2.08,2.79,4.07,3.89,6.25,3.66,7.26,3.33,8.75-2.47,12-.82.47-2,.42-2.71,1-8.25,5.92-17.66,9.87-26.09,15.46-2.27,1.51-3.58,1-4.89-.93-2.13-3.11-2.9-7-5.55-9.82-.35-.38,0-1.42.05-2.15-.92-1.15-2.2-2.16-2.66-3.47-.54-1.56-3.22-2.38-1.73-4.66a88.63,88.63,0,0,1-10.16-14.86A81.71,81.71,0,0,1,481.6,147.71Zm-68.57,39c5.44-4,11.49-7,17.27-10.42,9.3-5.47,18.6-10.95,27.71-16.74,2-1.29,3.8-2.88,4.68,1.09.26,1.19,1.63,2.11,2.38,3.23,2.15,3.22,5.33,5.86,5.81,10.06,1.75,2,3.65,3.9,3.66,6.83,3.08,3.54,4.72,7.92,7,11.92,1.27,2.21,1.33,3.4-1,4.69-5.83,3.23-11.75,6.35-17.31,10-6.49,4.27-13.55,7.6-19.74,12.35-2.18,1.67-4,3.64-6,5.48-.94.86-2.19,2-3,.38-1.65-3.48-4.72-6.35-4.74-10.56a56.83,56.83,0,0,1-3.57-5.09c-1.47-2.66-1.92-5,1.21-7.36,2.88-2.13,6.54-3.27,8.65-6.42-.11-2.11-.65-4.15-.41-6.33a3.14,3.14,0,0,0-4.15-3.46c-5.12,1.79-10.42,3.1-15.1,6-.82.51-2.8,1.92-2.91.1S410,189,413,186.71Zm2.21,10.45c4.77-3,9.37-6.15,14.92-7.4,3-.67,3.7.26,2.62,3.13a6.13,6.13,0,0,1-1.45,2.54c-3.58,3-6.95,6.5-11,8.69-6.7,3.61-12,9.08-18.55,12.87-4,2.31-7.34,5.77-11,8.68a3.26,3.26,0,0,1-4.88-.43c-.84-.9-1.39-2.09-2.29-2.89-1.9-1.67-1.72-3.06.37-4.41,1.21-1.84,3.58-2,5.16-3.3C397.32,208,406.33,202.68,415.24,197.16Zm-57.89-8.41a196.15,196.15,0,0,0,24.19-18c2.27-2,3.71-2.44,5.57,0a19.05,19.05,0,0,0,1.49,1.63c.77.79,1.57,1.57,2.3,2.4,4.1,4.58,4.05,6.05-.26,10.22-1.95,1.89-3.75,4-5.82,5.7-3.23,2.74-5.58,6.36-9.8,8.19a8.53,8.53,0,0,0-5,6.4c-.68,4.13-3.15,5.26-7,3.46a8.27,8.27,0,0,1-3.82-2.83c-3.25-3.78-3.29-8.48-3.24-13C355.91,191.72,355.72,189.78,357.35,188.75Zm-6.75-9.05c-.87-1.39-.84-2.28.37-3.07,2.49-1.62,4.31-4.3,6.84-5.55,7.26-3.59,12.58-9.81,19.59-13.76,4.31-2.43,8.11-5.77,12.83-7.59,1.48-.56,3.19-.9,2.95,1-.28,2.23.2,4.91-2.21,6.67a46.82,46.82,0,0,0-4.82,4.72c-2,1.67-4.17,3.89-6.41,6-5.37,5-12,8.26-17.29,13.43C356.73,187.16,355,186.7,350.6,179.7ZM374.2,210c2.77-2.11,5.21-4.88,9.05-5.14a36.79,36.79,0,0,1,2.94-2.24q9.66-5.85,19.35-11.62c1-.6,1.86-2.21,3.13-1.3a5.67,5.67,0,0,1,1.93,3.79c.3,1.9-.89,2.88-2.18,3.93-3.71,3-8.06,5.05-11.85,7.9-5,3.76-10.71,6.38-15.76,10.05-.8.57-1.83,1.57-2.85.15-1.11-1.11-2.23-2.21-3.32-3.34C374.05,211.52,373.32,210.63,374.2,210Zm64.55-91.53c3.76-.77,7.18-2.76,11.32-2.3,5,.55,9.22,2.5,13.68,4.54,3.39,1.55,3.39,4,2.7,6-2.7,8.15-8.37,13.87-16.11,17.9-1.09-7.61-3.15-14.59-8.68-20.06a45.55,45.55,0,0,1-3.15-4.08C437.87,119.67,437.61,118.67,438.75,118.43Zm-25.38,9.22c4.62-1.89,9.15-4.06,13.9-5.48,3.11-.92,6.78-3,9.61,1,1.94,2.68,3.87,5.39,6,7.94a4.46,4.46,0,0,1,.77,3.09l.89,1.06c2,2.37,1.75,5.54,2.9,8.23.64,1.49-.39,2.63-1.67,3.69-4.92,4.07-10.59,6.78-16.22,9.64-3.54,1.8-4.67,1.76-5.63-1.93-.42-1.65-1.77-3-1.53-4.79l-2.21-2.91c-2.06-4.75-5.68-8.42-8.69-12.5C408.71,130.91,409,129.44,413.37,127.65Zm-37.09,21.18c6.31-3.89,12.66-7.72,18.78-11.91,2.86-2,6.21-4,9.49-4.29,2.78-.25,3.43,4.12,5.68,5.84a8.31,8.31,0,0,1,1.79,1.86c1.77,2.59,4.33,4.7,4.81,8a9,9,0,0,1,2.43,4.07c1.93,1.61,1.59,4.34,3,6.15,1.58,2.06.48,3.23-1.17,4.1-7.69,4-15.21,8.25-21.45,14.39-1.7,1.67-2.74,1.07-3.74-.62-1.41-2.39-2.81-4.79-4.22-7.19-2.21-1.73-4-3.49-.5-5.74a15.89,15.89,0,0,0,4.37-12.33c-.2-4.68-2.44-6.05-6.87-4.16-.57.24-1.08.61-1.66.81a41.31,41.31,0,0,0-8.69,4.6c-.88.56-2.19,1-2.24-.47C376.05,151,374.62,149.85,376.28,148.83Zm-31.86,19.74c4.71-1.72,8.75-4.72,12.86-7.37s8.78-4.77,12.65-8a1.75,1.75,0,0,1,2.83.22c1.08,1.2.33,2-.52,2.8-.45.43-.87.87-1.43,1.43-5.76,4.85-12.26,9-18.36,13.62-2.67,2-4.89,4.16-8,.79-.42-.46-1.92,0-2-1.09C342.33,169.75,343.45,168.93,344.42,168.57ZM103.85,326.76a5,5,0,0,1,1.27-8.93,140,140,0,0,1,17.54-4.36c8.91-1.57,17.91-2.55,26.85-4,1.61-.26,1.85-.21,2.34,1.49,1.75,6.18,2.28,12.58,3.56,18.84.83,4,2.3,8.07,1.67,12.33.28,1.43.84,2.77,1.18,4.18,1.11,4.67,1.17,9.62,3.36,14,.32.66.89,1.3.07,1.93s-1.33-.17-2-.35c-4.08-1.05-7.33-3.83-11.14-5.37-5.29-2.13-10.6-4.16-15.33-7.42-.46.09-1.07.42-1.34.24a60.49,60.49,0,0,0-9.69-5c-1.87-.83-3.91-1.55-5.15-3.42C113.44,335.49,109.35,330.53,103.85,326.76ZM83.19,374.15c.16-1.75.19-3.89,3.34-4.31,6-.82,12-.2,18-1.18,4.31-.7,9.18.58,12-4.15,2-.88,2.54-4.47,5.7-3.07a126,126,0,0,1,17.94,9.5c4.88,3.18,10.06,6,14.06,10.38,1.12,1.24,1.74,2.71-.05,3.09-2.64.57-4.13,2.57-6.12,3.88a7.31,7.31,0,0,1-7.22,1A109.34,109.34,0,0,1,128.17,384a38.77,38.77,0,0,0-13.06-4.21c-9.59-1.13-19.23-1.81-28.67-3.94C85.11,375.57,83,376.09,83.19,374.15Zm49.26,21.59c-4-2.9-8.72-3.93-13.23-5.55a84.33,84.33,0,0,0-19.59-4.33c-4-.44-8.1-.26-12-1.34-4.51,1.65-9.24.78-13.87,1.11-1.28.1-3.46,1.23-3.94-.58C69,382.22,67,379.6,68,376.41c-.61-2.18-1.33-4.33-1.78-6.54-.22-1.09,0-2.24,1.71-2.06,4.31.44,8.62.81,12.92,1.21.78,1.31.39,2.4-.33,3.7-1.74,3.09-1,5,2.41,5.38,1.91.23,3.73.79,5.62,1.06,2.87.41,6,.12,8.57,1.86l1,.07c.72-.83,1.4-.73,2.07.06,12.62-.07,24.11,3.78,35.3,9.37,5.4,2.7,11.55,4,16.69-1.44.52-.55,1.53-.5,1.9-.84,2-1.88,5.95-2.63,4.54-6.8l-.47-.72-.81-1c-4.66-3.3-9.07-7-13.66-10.37-6.62-4.9-14.22-7.44-21.32-11.14-2.46-1.28-4.86-1.44-6.76,1.72a17.26,17.26,0,0,1-5.83,5.62c-1.54,1-3.22,1.25-4.45.13s-.37-2.63.26-4c.91-2,2.59-3.3,3.8-5-.73-3.28,2-4.94,3.33-7.28,1.45-2.59,3-2.56,4.82-.58a23.44,23.44,0,0,1,6.7,2.53,71.53,71.53,0,0,0,11.06,5.48c11.88,5.08,23.16,11.4,35.06,16.42,1.81.76,4.38,1.82,4.49,3.38.15,2.06-2.59,3.12-4.33,4.06-8.5,4.63-16.69,9.65-23.67,16.44l-.66.51L144,399.63c-1.63,1.33-2.34,5.14-5.43,2.69A22.49,22.49,0,0,1,132.45,395.74ZM153.88,442c-2.27-.09-4.27,1-6.47,1-8.21.3-16.25,2.17-24.46,2.72-5.81.38-11.6.64-17.41.67-1.78,0-3-.72-1.19-2.64,5.61-6,9.76-13.18,16.54-19.21,3.67-5.49,10.93-8.12,15.61-13.71,1.2-1.43,2.21-1,3.35.16,2.88,3,4.76,6.71,6.85,10.28a109.63,109.63,0,0,1,8.21,18.27C155.4,440.93,155.3,442,153.88,442Zm7.64,85.19c-.9,3.26-1.9,2.32-3.69,1.24-5-3-9.92-6.14-14.71-9.51-2.1-1.47-3.17-2.53-2.45-4.92,2.92-9.61,7.93-18.18,13.44-26.49,1.1-3.21,2-6.51,4.69-8.91,1.41-3.47,3.26-6.83,4.13-10.43,1.62-6.64,1.14-13.54-.28-20-3-14-8.13-27.15-17-38.57-.82-1-1.5-2-.4-3.23,3.87-4.37,8-8.6,13-11.44,7.23-4.09,14.49-8.17,20.43-13.93,5.61-5.44,6.13-6.59-.71-9.69-.07,0-.06-.23-.17-.72,5.68-.65,11.34-1.16,17-2,3.45-.51,6.78,0,9.32,2a63.1,63.1,0,0,1,13.15,15.13c.36.56.65,1.18.19,1.69-2.17,2.39-2.83,5.68-4.85,8.11-3.94,4.74-8,9.39-12,14-3.59,4.14-3.46,5.78.08,10,2.93,3.5,6.36,6.46,9.6,9.63a208.87,208.87,0,0,0,23.15,19.16c2.39,1.74,4.59,3.8,7.14,5.23,8.07,4.53,16.14,9,23.23,15.05a1.16,1.16,0,0,1,1.89.13c.61.8.05,1.4-.43,1.93-8.77,9.52-17.19,19.39-27.06,27.85-3.46,3-7.29,3.9-11.74,3.69-11.44-.52-21.91-5-32.77-7.84-6.27-1.66-12.53-3.22-19.06-3.37a9.33,9.33,0,0,0-1.64,3.27c-1.67,5.42-3.35,10.85-5.24,16.2C165.72,516.08,163.1,521.48,161.52,527.17Zm76.56-160.91c1.8,2.54.79,3.85-1,4.58-4.75,2-8.32,5.51-12.44,8.31-1.33.9-3.31,2-4.65.82-3-2.7-6.1-5.54-8.2-8.93-1.18-1.91-2.23-4-4.06-4.91s-1.16-1.27-.23-2.05c6.15-5.43,13.29-9.52,19.69-14.62,1.34-1.06,2.1-.41,2.38.9C230.88,356.48,234.61,361.36,238.08,366.26Zm-6-26.42a117.51,117.51,0,0,1,3.72-14.08,72.19,72.19,0,0,1,6.41-15A46.62,46.62,0,0,1,252.71,299c6.85-8.35,16.17-13.65,26.15-17.76,15.49-6.38,30.48-3.15,44.14,4.76,8.26,4.79,15.56,11.69,19.15,21.19,2.17,5.78,4.19,11.83,2.82,18.08-2.29,10.48-8.22,19.17-15,27.2-8.36,9.89-19,16.82-30.8,21.94a51.41,51.41,0,0,1-16.42,3.8,71.24,71.24,0,0,1-21.24-1.62c-6.65-1.49-13.12-3.49-18.12-8.76-3.52-3.7-5.64-8.17-8.23-12.42A21.05,21.05,0,0,1,232.08,339.84ZM251,537.53c-3.62,3.52-6.95,7.34-10.52,10.92-5.36,5.37-9.52,11.73-14.56,17.37-1.73,1.92-3,2.41-5,.16A23.38,23.38,0,0,0,215,561.6c-5.44-3.13-11.2-5.7-16.34-9.36-6-1.8-11.62-4.85-17.91-6.12-3.88-.79-7.91-1.55-11.52-3.46-1.42-.2-2.87-.33-4.27-.65-1-.23-1.83-.77-1.46-2.08.5-1.75.87-3.54,1.45-5.26,1.72-5,3.59-10,5.27-15.1,2.43-7.33,4.76-14.7,7.11-22.06.4-1.25,1.16-1.35,2.29-1.06,6.63,1.67,13.4,2.87,19.87,5,9.68,3.23,19.34,6.21,29.66,6.35.7-.83,1.56-.39,2.38-.31a10.29,10.29,0,0,0,9.11-3.53c5.73-6.15,11.81-12,17.79-17.9,1.18-1.16,2.13-2.66,4.1-3.1-1.68,2.93-1.21,6.6-3.63,9.22-1.81,7.69-4.91,14.91-8.16,22.08-.94,2.06-2.61,4.32-1.4,6.42,1.82,3.15,2.84,6.71,5.24,9.56,1.68,2,3.24,4.16,3.33,6.9C255.61,537.32,253.05,535.51,251,537.53ZM315.59,530c-3.79.21-7.4,1.64-11.11,1.91a44.59,44.59,0,0,0-23.64,9C277,543.72,269,541.84,266,538c-3.24-4.17-5.52-8.9-8.23-13.36-1.24-2-3.23-4.49-2.18-7.37s2.57-5.78,3.62-8.76c1.94-5.45,3.93-10.89,5.93-16.31,1.37-3.71,1.57-8,4.47-11.09-1.42-2.18.7-3.63,1.23-5.36,1.09-3.57,2-3.67,5.12-1,.66-.26,1.08.14,1.49.57,4.52,2.05,9,4.14,13.57,6.15,1.87.82,3.08,1.13,3.92-1.78,1-3.45,2.92-6.66,4-10.18,1.36-4.51,4.44-8.15,6.47-12.24,3.07-6.21,8.28-10.76,11.4-16.87,1.73-3.39,5.67-4.79,8.76-6.93,6.43-4.45,13.32-7.64,21.1-8.5,4.9-.55,7.28,1.07,9.27,5.44a9.08,9.08,0,0,0,1.11,1.48,113.52,113.52,0,0,1,11.32,19.35l-3.7.94c-6.93,1.37-13.92,2.47-20.74,4.4-4.76,1.34-9.46,2.81-14.14,4.45-5.05,1.78-10.13,3.27-14,7.3-2.22,2.31-4.61,4.45-6.91,6.68a43.61,43.61,0,0,0-9.46,13.83,4.77,4.77,0,0,1-1.28,2.7c.5.65.29,1.26.13,2-1.56,7.28-2,14.52,1.34,21.5,4.86,5,9.58,10.19,16.39,12.69a1.61,1.61,0,0,1,.85,1.07C316.9,529.65,316.18,529.92,315.59,530Zm104.84-8.48a52.39,52.39,0,0,1-14.36.52c-1.25.2-2.33,1.68-3.75.46-1.45-.19-.16,3.22-2.25,1.86s-3.28-.4-4.81.9c-4.07,3.46-7.95,7.37-13.47,8.43-3,.57-5.94,1.66-9-.6-5.67-4.18-10.25-8.9-11.55-16.2-.32-1.81-1.73-4-4-3.43s-4.76.76-7,1.86c-3.24,1.56-6.82,2.37-10.2,3.64-1.32.5-1.25.14-1.78-1-1.81-4-.73-8.1-.82-12.15,1.7-2.65.32-6.58,3.45-8.59a31.38,31.38,0,0,0,6.07-5.41,28.59,28.59,0,0,1,12-7.44,202.65,202.65,0,0,1,26.45-7.66c8.68-1.75,17.07-1.86,25.61,1,4.61,1.55,8.21,4.66,12.56,6.53,1.45.62,4,1.84,3,4.62l.48.38c.42-.1,1-.4,1.23-.25.68.36.31,1,.07,1.48,2.92,2.87,4,6.77,4.41,10.48.33,2.81.77,6.39-2.27,8.66.19.3.58.63.55.92C430.73,514,424,520.78,420.43,521.47Zm24-6.56c-4,1.68-8.21,2.85-12.35,4.19-1.13.37-2.55-.46-1.66-1.27,3-2.75,2.37-7.29,5.29-10-.2-.82-.72-1.72-.54-2.45,1.19-5.11-.17-9.7-2.47-14.19-.45-.87-1.57-1.75-.59-3A42,42,0,0,0,419.37,478c-11.3-6.21-23.17-6.75-35.45-3.72-6,1.48-12.08,2.33-18,4.47-5.56,2-11.64,3.27-16.36,6.65-7.37,5.26-15,10.92-15.35,21.41.73,3.93-.47,8,1.12,11.88-1.11.35,1.38,3.38-1.7,2.28-3.11,3.08-7.62,3.72-11,6.31-.52.39-1.14.17-1.73-.12-4.81-2.35-9.71-4.56-13.18-8.89-4.48-3.12-7.39-7.31-7.89-12.79-.26-2.85.19-5.76.31-8.65,1.86-5.24,3.24-10.72,7-15.06,6.54-7.51,13-15.12,23.08-18.16,9.25-2.79,18.46-5.79,28-7.39,3.47-.59,6.95-1.81,10.58-1a25.87,25.87,0,0,1,13-2.66c3.89-1.3,7.78-.82,11.75-.36a95.35,95.35,0,0,1,27.79,7.93,85.25,85.25,0,0,1,12.32,7.11c7,4.63,13.25,9.75,16.58,17.73a17.52,17.52,0,0,1,1.6,14.36C452.51,504.6,448.65,513.13,444.43,514.91Zm75.71-62.63c.48-.72.84-1.8,1.88-1.2,2.46,1.44,5.6.67,7.87,2.58a1.67,1.67,0,0,1,.55.35,1.87,1.87,0,0,1,2-.25,38.23,38.23,0,0,0,9.45,1.92c7.59.8,12.37,4.75,13.54,11l1.62,2.83c.91.92,1.38,1.87.2,2.92,4.73,6.61,2.48,13-.56,19.43a18.55,18.55,0,0,1-10.12,11.49c-8.91,4.14-18.56,4.44-28,5.84-3.78.56-4.34-.67-2.14-4.21,3-4.87,4-10.08,4.06-15.75,0-3.27-1.07-6.68.5-9.9-2.2-3.45-1.18-7.36-1.57-11.06-1.71-1.56-.47-3.69-.92-5.55A13,13,0,0,1,520.14,452.28Zm-15-7.38c.91.22,1.93-1,2.75.22a5.57,5.57,0,0,1,4.69.22c2,1.06,5.57,1.23,4.76,5.09.24,1.3-.71,2.39-1.15,3.33-1.87,4,.48,8-.29,11.87,1.43,4.61,1.41,9.38,1.62,14.13,1,3.21.37,6.53.55,9.79.11,1.92.7,4.15-.86,5.93.25,1.41-.68,2.62-1.13,3.73-1.49,3.68-3.55,7.12-5.37,10.66-.46.9-1.09,1.37-2,1a1.1,1.1,0,0,1-.52-1.79c3.4-4.87,3.67-11,6.44-16.09-.13-4.05-.38-8.09.59-12.09a64.14,64.14,0,0,0-2.81-16.43c-1.67-3.33-4.08-6.51-4.77-10-.52-2.7-3.67-4.52-2.33-7.64-.13-.54-.25-1.09-.38-1.63S504.67,444.54,505.14,444.9Zm-78.25-3.73c2.54,1.4,5.35,1.66,8,2.7a54,54,0,0,0,15.85,3.44c6.14.44,12.37.38,18.5.79,10.46.7,20.85,1.15,31.28-.1,1-.12,1.23,0,1.66,1.1,1.6,4.2,3.52,8.28,5.42,12.35.41.9,1.21,1.6.43,2.65a25.27,25.27,0,0,1,4.18,16.77,22.67,22.67,0,0,1-1.63,11c-.54,6.79-2.47,13-7.1,18.25a2.67,2.67,0,0,1-3,.72c-3.67-1-7.32-2.11-11-3.17-4.11.69-7.8,2.7-11.46,4.38-8.54,3.92-16.77,2.15-25.15.07-1-.25-.7-.76-.3-1.31.28-3.21,2-6,2.54-9.22.3-1.93-.89-4.27,1.16-5.87-1.65-3-.71-6.51-1.89-9.6a16,16,0,0,0-5.53-9.91c-3.43-3-6.53-6.39-9.79-9.58A14.3,14.3,0,0,0,436,464c-4.83-2.51-9.64-5.1-14.65-7.22a121,121,0,0,0-15-5.19c-4.08-1.12-8.36-1-12.28-2.58l-.5-.08.5-.05c3.7-2.24,7.74-3.9,11.07-6.77,1-.85,1.71-2.68,3.62-1.62,2.32-2.59,5.26-4.47,7.81-6.79,1.68-1.53,2.69-1.12,3.13.76C420.56,438.43,423.86,439.49,426.89,441.17Zm57.7-60.34a33.61,33.61,0,0,1-3.09,3.66c-3.51,3.84-8.32,5.89-12.41,8.94-2.56,1.91-4.93,4.17-7.71,5.67-6.63,3.57-12.71,8-19.09,11.95-4.38,1.74-8.1,4.68-12.31,6.78-3.2,1.6-7.12,2-9.65,4.86-3.56,4-7.8,7.17-11.86,10.53-2.06,1.72-3.69,4.72-7.12,4.42-5.5,5.1-12.35,7.13-19.43,8.67s-8.31.8-12-4.32c-4.78-6.56-7.88-14.31-14.08-19.86L352,419.67c-9.79-.52-18.78,2.31-26.89,7.45-7.87,5-14,11.95-19.47,19.52-3.41,4.74-5.79,10.18-9.84,14.49a2.35,2.35,0,0,1-.37.52c.95,1.16.08,1.88-.63,2.65-1.88,2.77-1.76,6.31-3.63,9.15-1,1.52-1.65,1.71-3.2.85-4.65-2.6-9.75-4.5-14.18-7.3-7.61-4.81-15.71-8.71-23.17-13.8-7.93-5.42-16.28-10.24-23.71-16.38-4.45-3.68-8.76-7.55-13-11.47-2.91-2.67-5.71-5.48-8.36-8.4-1-1.14-2.49-2.48-.61-4.4,5.51-5.61,10-12,14.51-18.46,1.62-2.33,3.4-4.47,3.79-7.38.35-2.52,2-4.16,3.87-5.6l8-6c4.83-3.63,5.8-3.35,11.39-.68a68.28,68.28,0,0,0,9.75,3.88c6.73,2,13.62,2.05,20.46,2.18,6,.11,12.13.17,18-1.61,9-2.72,17.52-6.56,24.85-12.59,11-9,20.64-19,25.8-32.82,4.36-11.62,3-22.56-3-32.72-7.45-12.54-18.81-20-33.09-23.59-15.17-3.8-29.44-1.45-42.68,5.95-10.32,5.78-18.34,14.73-25.58,23.95-6.88,8.77-8.71,19.86-11.34,30.42-1.08,4.34-2,8.16-6.21,11-2.69,1.8-5.66,3.2-8.22,5.38-5.59,4.78-11.07,9.88-19.45,9.57-6.92-.27-13.8,1.63-20.78,1.07-5.32-.42-10.05-6.77-9.25-12.3a36.58,36.58,0,0,1-3.23-15.83c-.35-.51-.94-1-1-1.53-.94-7.29-3-14.41-3.29-21.79-.09-2-1.86-4.39.58-6.14a23.85,23.85,0,0,1,5.7-3.39c10.8-3.77,19.55-10.7,28-18,8.8-7.54,15.17-17.3,22.91-25.8A217.84,217.84,0,0,1,243.74,234c7.61-5.87,14.34-12.86,22-18.84,10-7.83,18.57-17.37,29-24.87,6.7-4.81,12.77-10.5,19.67-15.22,11.26-7.7,15-6.86,26.38-.83,1.27.67,3.24.31,3.8,1.87,1.66,4.62,5.45,7.76,8,11.77a4.54,4.54,0,0,1,.39,3.48c.74,2.38,0,4.81.24,7.21.91,9,5.32,13.71,14,13.47,2.77-.07,4.21.73,5.47,2.51a60.89,60.89,0,0,0,5.24,6.2c5.46,5.93,9.87,12.17,8.41,21-.73,4.39.89,8.71,2.49,12.69,2,5.09,6.47,7.63,11.68,9.17,2.28.67,4.21,1.26,6.18-.32,2.71-2.17,4.64-.5,5.61,1.68,2.34,5.29,6.45,9.32,9.53,14.08,3.48,5.4,7.76,10.31,10.61,16.15,2.87,5.33,4,10.7.38,16.19,2.76,5,7.51,8,12,10.89,2.68,1.75,6,4.12,9.76,1.45.5-.36.76.24.92.75,1.32,4,3.17,7.9,4.45,11.9,2.49,7.78,5.39,15.3,9.68,22.25a13.83,13.83,0,0,1,2.23,3.23,16.88,16.88,0,0,0,5.52,6.81l.53.64,1.49,1.46C485.84,372.71,488.26,375.46,484.59,380.83ZM522.25,349c-5.81,3.73-11.94,6.89-18,10.19-4.14,2.27-8.84,4.2-11.93,7.54-3.44,3.7-6.07,5.39-10.13,1.72-2.86-2.58-6.8-4.29-7.46-8.77L471,354.34c-3-2.89-3.72-7-5.33-10.63-.38-.84-.32-2.14,1.6-3.19,9.27-5.1,18.82-9.64,28.32-14.23,4.23-2.05,8.16-4.77,12.75-6.13,1.95-.58,2.95-.36,3.71,1.57,1.16,2.93,2.53,5.77,3.81,8.64.21,2.89,2.86,4.6,3.52,7.28,2.06,2,2.09,5.11,3.78,7.35C524.36,346.61,523.9,348,522.25,349Zm61.23-31.88c-8.06,3.62-16.21,7.15-23.92,11.45-8.08,4.49-16.58,8.22-24.24,13.5-1.84,1.28-4.22,1.76-6.18,3-1.33.86-2-.39-2.52-1.35-1.38-2.54-2.69-5.11-4-7.67-1.74-1.78-1.73-4.4-3.07-6.37-2.33-2.18-2.27-5.56-4-8s-.85-4.09.89-5.79c1.93-1.88,3.93-3.69,5.79-5.64,3.53-3.68,3.5-3.72,0-7.35-2.51-.95-5-1.65-7.73-.69a2.19,2.19,0,0,1-3.07-1.06c-1-2,.22-7.77,2.3-8.78A186.66,186.66,0,0,1,531,284.61c7.92-2.93,15.69-6.18,23.48-9.44,4.57-1.92,9.23-3.62,13.88-5.36,1.58-.59,2.33.45,2.61,1.77a38.28,38.28,0,0,1,1.15,10.87c2.33,3.44,2.95,7.56,4,11.41.62,2.25,3,4.23,1.71,7,2.2,2.36,2.46,5.54,3.46,8.4,1.25,1.93,2.81,3.67,3,6.17C584.3,316.23,584.81,316.54,583.48,317.13Zm51.26-32.39a54.78,54.78,0,0,1-19,16.3c-7,3.59-14.25,6.8-21.21,10.55-5.8,3.13-7.38,2.44-9.66-3.22-2.23-2-2-5.1-3.17-7.59-1.83-6.11-4.47-12-5.6-18.32a65,65,0,0,1-1.85-12.11c-.07-1.3,0-2.46,1.37-2.48,4,0,7.76-1.62,11.71-2.12,6.32-.8,12.57-2,19-2.41,9-.56,17.63-.17,25.22,5.39,2.74,2,4.28,4.66,3.69,8.22A6.5,6.5,0,0,1,634.74,284.74Z" transform="translate(1.36 -109.4)" style="fill:#060503"/><polygon points="509.25 335.72 509.25 335.72 509.25 335.72 509.25 335.72" style="fill:#060503"/><path d="M530.47,454l0,0h0Z" transform="translate(1.36 -109.4)" style="fill:#060503"/><path d="M218.21,574.5c1.24-1.45.83-2.3-.27-3.41a45.18,45.18,0,0,0-10.4-7.3c-4.44-2.5-8.9-4.93-13.5-7.12-8.43,7.47-15.21,16.64-24.79,23-4.65,3.1-8.44,7.43-12.45,11.46,15.86-.11,31.72,0,47.57.4.61-.77,1.22-1.53,1.82-2.32C210,584.15,214.1,579.32,218.21,574.5Z" transform="translate(1.36 -109.4)" style="fill:#77430d"/><path d="M110.17,591.73l.92-.65c6.22-4.19,11.2-10.06,17.54-14.36,8.06-5.48,14.32-13.28,22.74-18.51,4.44-2.75,8.08-6.77,12.08-10.22-.09-.08-.17-.2-.28-.23-5.24-1.69-7.54-4.78-5.09-10.32a2.12,2.12,0,0,0-.92-2.59c-5.84-4.08-11.55-8.37-18.14-11.21-4.74-2-5.68-4-4.08-9a38.67,38.67,0,0,0,.92-4.58c-6.22,5.31-9.89,12.66-15,18.83-3.64,4.36-6.89,9.13-10.41,13.56-6,7.53-11.72,15.28-17.64,22.87-4.18,5.37-8.64,10.55-12.5,16.14-2.91,4.22-6.9,7.17-10.54,10.54L76,592C87.39,592,98.78,591.88,110.17,591.73Z" transform="translate(1.36 -109.4)" style="fill:#77430d"/><path d="M381.92,446.31c7.08-1.54,13.93-3.57,19.43-8.67a2.89,2.89,0,0,0,.48-2.82c-2.26-7.11,2.34-11.72,6.11-16.48,5.13-6.48,12.44-10.63,18.24-16.38,5.27-5.22,11.14-9.75,16.37-15a28.06,28.06,0,0,1,6.26-5.11c7.47-4,14.64-8.74,23.05-10.73.22-2.46-1.15-4.36-2.22-6.38s-1.54-4.08,0-6.12c-4.29-6.95-7.19-14.47-9.68-22.25-1.28-4-3.13-7.87-4.45-11.9-.16-.51-.42-1.11-.92-.75-3.73,2.67-7.08.3-9.76-1.45-4.52-2.93-9.27-5.9-12-10.89-2.72-3.8-2.92-12.45-.38-16.19-2.85-5.84-7.13-10.75-10.61-16.15-3.08-4.76-7.19-8.79-9.53-14.08-1-2.18-2.9-3.85-5.61-1.68-2,1.58-3.9,1-6.18.32-5.21-1.54-9.64-4.08-11.68-9.17-1.6-4-3.22-8.3-2.49-12.69,1.46-8.83-3-15.07-8.41-21a60.89,60.89,0,0,1-5.24-6.2c-1.26-1.78-2.7-2.58-5.47-2.51-8.71.24-13.12-4.47-14-13.47-.24-2.4.51-4.83-.23-7.21-2.29,1.42-5.3.25-7.48,2.09-.82,1.93,2.25,3.39.9,5.09-1.68,2.13-3.19,4.64-6.11,5.45-1.82,1.7-1.11,4.33-2.56,6.32A90.88,90.88,0,0,1,323.22,226a28.3,28.3,0,0,1-16.1,6.88c-.66,2.91-3.18,4.25-5.24,5.86-7.41,5.79-14.28,12.2-21.57,18.14-6.71,5.46-10.65,13.7-17.38,19.32a2.26,2.26,0,0,0-.23.29c-8.1,9.32-15.06,19.62-24.08,28.16a37.75,37.75,0,0,0-4.93,5c-9.82,13.67-23.49,22.36-38.28,29.47-9.73,4.67-19.33,9.69-29.64,13.07-.8,5.53,3.93,11.88,9.25,12.3,7,.56,13.86-1.34,20.78-1.07,8.38.31,13.86-4.79,19.45-9.57,2.56-2.18,5.53-3.58,8.22-5.38,4.2-2.8,5.13-6.62,6.21-11,2.63-10.56,4.46-21.65,11.34-30.42,7.24-9.22,15.26-18.17,25.58-23.95,13.24-7.4,27.51-9.75,42.68-5.95,14.28,3.57,25.64,11.05,33.09,23.59,6,10.16,7.39,21.1,3,32.72-5.16,13.8-14.82,23.78-25.8,32.82-7.33,6-15.82,9.87-24.85,12.59-5.89,1.78-12,1.72-18,1.61-6.84-.13-13.73-.15-20.46-2.18a68.28,68.28,0,0,1-9.75-3.88c-5.59-2.67-6.56-2.95-11.39.68l-8,6c-1.91,1.44-3.52,3.08-3.87,5.6-.39,2.91-2.17,5.05-3.79,7.38-4.5,6.43-9,12.85-14.51,18.46-1.88,1.92-.43,3.26.61,4.4,2.65,2.92,5.45,5.73,8.36,8.4,4.25,3.92,8.56,7.79,13,11.47,7.43,6.14,15.78,11,23.71,16.38,7.46,5.09,15.56,9,23.17,13.8,4.43,2.8,9.53,4.7,14.18,7.3,1.55.86,2.2.67,3.2-.85,1.87-2.84,1.75-6.38,3.63-9.15-1-1.18-.27-1.93.63-2.65a2.35,2.35,0,0,0,.37-.52c-1.22-3.64,1.31-6.49,2.2-9.65,1.74-6.12,4.3-11.73,9-16.46,5-4.94,11.19-8.88,14.15-15.67.38-.88,1.2-.51,1.89-.63,5.85-1,11.8-1.43,17.57-3,4.81-1.26,9.34.38,11.34,3.9l3.76,2.46c2-1.05,2.64.8,3.57,1.72C366.92,431.3,374.41,438.81,381.92,446.31ZM447.79,336c4.43,4.36,7.6,7,7.16,12.66-.31,4,.62,8-.38,12.19-.9,3.72-2.69,7-3.73,10.6-2.37,8.12-9.33,11.64-15.37,16C431.9,390,427.18,390,423,391.1a11.51,11.51,0,0,1-5.77.08c-8.1-1.84-14.18-6.84-19.75-12.56-2.48-2.55-5.36-5.11-6.73-8.25-4.59-10.47-2-20.43,3.94-29.59,1.56-2.39,2.8-5.46,5-7,6.87-4.62,14.27-8.14,22.87-8.33,4.64-.1,9.13-.17,13.57,1.63C441.45,329.27,444.94,333.58,447.79,336ZM368.05,223.7c5.1,3.81,7.09,9.73,11.55,13.64a3.13,3.13,0,0,1,.93,3.72,63.53,63.53,0,0,1-3.44,6.79c-3.37,5.32-8.73,8.3-13.64,12-6.19,4.61-12.5,9-18.92,13.26-3.75,2.49-7.56,4.91-12.11,3.07a44.13,44.13,0,0,1-9.38-5.47c-5.38-3.93-8.32-9.86-11.49-15.45-3-5.29-2.05-10.43,2.38-14.25,6.1-5.25,11.88-10.79,18.79-15.23,7.07-4.56,14.76-7.42,22.18-11a2.7,2.7,0,0,1,3.08.68C361.05,218.75,366,219.75,368.05,223.7Zm2,64.83c6.54-7.64,14.05-12.39,24-13a32.62,32.62,0,0,1,16.53,2.91c8.13,4,9,11.88,9.67,19.58.52,5.84-2.76,10.51-6.1,14.83-7.7,10-17.17,17.41-30.21,18.79A27.46,27.46,0,0,1,368.43,329c-7.63-3.83-9.21-11-9.49-18.44-.09-2.31-2.05-4.45-.29-7.05C362.26,298.2,364.77,292.05,370.07,288.53Z" transform="translate(1.36 -109.4)" style="fill:#77430d"/><path d="M-.2,586.88a.7.7,0,0,0,.14,0q-.55-2.58-.87-5.19C-.75,583.39-.52,585.13-.2,586.88Z" transform="translate(1.36 -109.4)" style="fill:#644100"/><path d="M158.69,461.15c-.73-4.58-.12-9.25-1.22-13.76-.4-1.64-.77-2.71-3.16-2.38-7.15,1-14.35,1.52-21.51,2.55a144.31,144.31,0,0,1-27.94,1.67c-4.6-.24-5.87-2.88-3.49-6.74.19-.32.31-.68.53-1,8.56-11.32,18.76-21.12,28.83-31l.28-.25c1.26-1.23,4.23-.63,4.14-3-.09-2.16-2.46-3.25-3.9-4.71-4.66-4.68-11-6-16.9-8.17-.85-.32-1.38.25-1.94.74-2.61,2.26-5.1,4.69-7.87,6.72-5.22,3.82-10.09,8.17-15.45,11.7a46.39,46.39,0,0,1-11.86,5.42c-3.12.95-5.8,2.95-8.91,4.17-6.66,2.62-12.8,6.56-19.46,9.17-7.79,3.05-15.39,6.55-23,10-6.19,2.82-12.31,5.83-18.5,8.68C5,452.05,2.53,453.1.1,454.15c-.2,14.68-.59,29.31-.74,44,6.46-4.08,13-8.14,19.41-12.23,7.61-4.82,15.19-9.7,22.86-14.41,6-3.69,11.85-7.66,18-10.94,5.61-3,10.14-7.52,16.06-10,3.81-1.57,10.35.1,12.44,3.59,1.44,2.41-1.23,9.08-4.58,10.57C77,467.65,71,471.68,65,475.56s-11.87,7.75-17.79,11.62c-7.84,5.14-15.61,10.38-23.55,15.36-8.22,5.16-16.24,10.6-24.32,15.95.09,7.15.28,14.31.64,21.51,0,.84,1.4,1.68,2.44,3.11.34-.1.56-.05.56.89a5.61,5.61,0,0,0-.56-.89c-.38.11-.91.42-1.44-.11a52.59,52.59,0,0,0-1.8,6.19c.15,11-1.24,21.52-.13,32.47q.32,2.61.87,5.19c.5-.12,1.06-.66,1.8-1.91,2-3.42,5.7-5.78,8.42-8.82,9.79-11,21.73-19.63,32-30.09,7.37-7.51,14.86-14.9,22.38-22.26C79.2,509.41,93.83,495,108.7,480.86c3.3-3.14,8-4.55,11.9-6.88,7.86-4.65,16.82-4.19,25.32-5.75,3-.56,6.25-.68,9.37-1.11C158.93,466.61,159,463.2,158.69,461.15Z" transform="translate(1.36 -109.4)" style="fill:#644100"/><path d="M2.44,543.11A5.61,5.61,0,0,1,3,544C3,543.06,2.78,543,2.44,543.11Z" transform="translate(1.36 -109.4)" style="fill:#644100"/><path d="M154.11,487.49c-5.51,8.31-10.52,16.88-13.44,26.49-.72,2.39.35,3.45,2.45,4.92,4.79,3.37,9.7,6.5,14.71,9.51,1.79,1.08,2.79,2,3.69-1.24,1.58-5.69,4.2-11.09,6.18-16.67,1.89-5.35,3.57-10.78,5.24-16.2a9.33,9.33,0,0,1,1.64-3.27c-1.19-.78-2.92-1.27-2.44-3.18s2.33-1.94,3.9-2a6.91,6.91,0,0,1,2.12.4c4.22,1.14,8.38,2.68,12.57,3.64,5.84,1.35,11.85,2.4,17.61,3.89,14.67,3.8,26.92-.23,38.22-9.44,6-4.9,11.3-10.62,17.19-15.66-7.09-6-15.16-10.52-23.23-15.05-2.55-1.43-4.75-3.49-7.14-5.23a208.87,208.87,0,0,1-23.15-19.16c-3.24-3.17-6.67-6.13-9.6-9.63-3.54-4.24-3.67-5.88-.08-10,4-4.65,8.09-9.3,12-14,2-2.43,2.68-5.72,4.85-8.11.46-.51.17-1.13-.19-1.69a63.1,63.1,0,0,0-13.15-15.13c-2.54-2-5.87-2.55-9.32-2-5.63.82-11.29,1.33-17,2,.11.49.1.69.17.72,6.84,3.1,6.32,4.25.71,9.69-5.94,5.76-13.2,9.84-20.43,13.93-5,2.84-9.17,7.07-13,11.44-1.1,1.23-.42,2.18.4,3.23,8.91,11.42,14,24.62,17,38.57,1.42,6.51,1.9,13.41.28,20-.87,3.6-2.72,7-4.12,10.43C161.18,481.91,159.41,485.26,154.11,487.49Z" transform="translate(1.36 -109.4)" style="fill:#77430d"/><path d="M107.3,335.84c-2.1-1.17-4.07.46-5.84,1.13-8.18,3.06-15.95,7.12-24,10.57-10.5,4.52-20.88,9.28-31.26,14.07C36.87,365.94,27.38,370,18,374.34q-8.46,3.93-16.89,7.92c.09,8.39-.1,16.73-.44,25.05,2.78-1.43,5.56-2.85,8.38-4.19,8.77-4.16,17-9.37,26-13.1,8.27-3.44,16-8.35,24.91-10.09.75-.15,1.36-1,2-1.52a21.57,21.57,0,0,0,0-2.54c-.23-2.49-1.17-4.11-4.17-3.83-3.8.36-5.68-1.21-5.72-4.39,0-3.4,2.17-5.19,5.71-5.37,10.11-.52,20,1.53,30,2.1a55.34,55.34,0,0,0,9.39-.75c1.43-.16,2.65-1.65,3.15-3,2.17-5.75,5.86-10.64,8.75-16C110.24,342.76,109.19,336.9,107.3,335.84Z" transform="translate(1.36 -109.4)" style="fill:#5b3107"/><path d="M345.48,193.44c2.18-1.84,5.19-.67,7.48-2.09a4.54,4.54,0,0,0-.39-3.48c-2.53-4-6.32-7.15-8-11.77-.56-1.56-2.53-1.2-3.8-1.87-11.35-6-15.12-6.87-26.38.83-6.9,4.72-13,10.41-19.67,15.22-10.44,7.5-19,17-29,24.87-7.65,6-14.38,13-22,18.84a217.84,217.84,0,0,0-28.26,25.73c-7.74,8.5-14.11,18.26-22.91,25.8-8.5,7.28-17.25,14.21-28,18a23.85,23.85,0,0,0-5.7,3.39c-2.44,1.75-.67,4.09-.58,6.14.33,7.38,2.35,14.5,3.29,21.79.07.55.66,1,1,1.53,2.34-2,4.32-4.52,7.28-5.64,5.32-2,10.88-3.52,16-5.87a105.88,105.88,0,0,0,28.4-19.25c10.78-10.11,19.27-22.27,29.06-33.28,4.79-5.38,8.81-11.38,13.52-16.86,7-8.17,15.23-15.34,21-24.56,1.81-2.88,5-4.2,7.78-5.91,1.07-1,.1-2.08-.05-3.11-.3-2-1.49-4.43-.8-6,2.26-5.15,2.84-11,5.93-15.69,4-6.16,9.7-10.75,15.14-15.63,4.67-4.18,9.81-5.94,15.91-6.28,10.18-.57,19.35,4.59,20.54,14.18C343.84,191.37,344.55,192.75,345.48,193.44Z" transform="translate(1.36 -109.4)" style="fill:#5b3107"/><path d="M169.25,579.7c9.58-6.39,16.36-15.56,24.79-23-3.88-2.76-8.49-3.78-12.92-5.09-5.26-1.55-10.66-2.61-16-3.94a1.75,1.75,0,0,0-1.69.35c-4,3.45-7.64,7.47-12.08,10.22-8.42,5.23-14.68,13-22.74,18.51-6.34,4.3-11.32,10.17-17.54,14.36l-.92.65c15.54-.2,31.09-.46,46.63-.57C160.81,587.13,164.6,582.8,169.25,579.7Z" transform="translate(1.36 -109.4)" style="fill:#ba6814"/><path d="M82.2,549.78c9.46-13.75,20.63-26,31.23-38.84,6.23-7.51,13.28-14.07,19.76-21.24-.15-1.65,1.24-2.32,2.15-3.24,5.07-5.1,9-11.32,15.16-15.36-4.28-1.17-8.49.23-12.62.78a47.32,47.32,0,0,0-22.24,8.48,7,7,0,0,0-1.23.8c-5.64,6.56-13,11.13-19.23,17.08-30.34,29.1-59.91,59-89.75,88.6-2.49,2.47-2.57,3.82-.21,6.14,14.23-.06,28.47-.4,42.71-.66,5.64-8,12.89-14.51,18.3-22.47C71.09,562.71,77.37,556.8,82.2,549.78Z" transform="translate(1.36 -109.4)" style="fill:#644100"/><path d="M108.54,393c-.29-1-1.36-.86-2.19-1a103.49,103.49,0,0,0-23.84-1.43c-2,.14-4,.43-6,.64a1.9,1.9,0,0,0,2,1.95,7.7,7.7,0,0,1,4.19,2.13c1.33,1.1,3.54,2,3.06,4.18a6,6,0,0,1-4.23,4.34c-5.67,1.78-11.35,3.53-17.07,5.16-7.09,2-14.22,3.95-21.34,5.88s-14.15,3.4-21,5.77C16.2,422.7,10,423.84,4,426c-1.29.46-2.59.89-3.9,1.31.12,7.95.11,15.86,0,23.76l2.45-1.12c6.74-3,13.53-6.1,20.22-9.33,6.42-3.09,13-6,19.43-9,5.26-2.48,10.72-4.55,16-7.08,6.54-3.14,13-6.4,19.84-9,6.37-2.49,12.6-5.63,17.25-10.81,3.51-3.91,8.69-5.53,12-9.59C107.77,394.43,108.84,394,108.54,393Z" transform="translate(1.36 -109.4)" style="fill:#644100"/><path d="M368.84,455.23c-3.63-.78-7.11.44-10.58,1-9.54,1.6-18.75,4.6-28,7.39-10.08,3-16.54,10.65-23.08,18.16-3.79,4.34-5.17,9.82-7,15.06,1.77,1.69,3.29,4.33,5.36,4.86,4.94,1.27,10.17,1.38,15.23,2.27,4.52.8,9.6-.85,13.5,2.85.38-10.49,8-16.15,15.35-21.41,4.72-3.38,10.8-4.63,16.36-6.65,5.89-2.14,12-3,18-4.47,12.28-3,24.15-2.49,35.45,3.72a42,42,0,0,1,12.74,10.23c4.6.06,9-1.27,13.53-1.87,1.6-.22,3.54.47,4.66-1.42-3.33-8-9.56-13.1-16.58-17.73a85.25,85.25,0,0,0-12.32-7.11,95.35,95.35,0,0,0-27.79-7.93c-4-.46-7.86-.94-11.75.36.19,2-3.15,6.42-5.22,6.87A6.63,6.63,0,0,1,368.84,455.23Z" transform="translate(1.36 -109.4)" style="fill:#77430d"/><path d="M252.71,299a46.62,46.62,0,0,0-10.5,11.74,72.19,72.19,0,0,0-6.41,15,117.51,117.51,0,0,0-3.72,14.08,21.05,21.05,0,0,0,3.07,15.55c2.59,4.25,4.71,8.72,8.23,12.42,5,5.27,11.47,7.27,18.12,8.76a71.24,71.24,0,0,0,21.24,1.62,51.41,51.41,0,0,0,16.42-3.8c11.84-5.12,22.44-12.05,30.8-21.94,6.79-8,12.72-16.72,15-27.2,1.37-6.25-.65-12.3-2.82-18.08-3.59-9.5-10.89-16.4-19.15-21.19-13.66-7.91-28.65-11.14-44.14-4.76C268.88,285.33,259.56,290.63,252.71,299Zm60.2,51.76a31.15,31.15,0,0,1-9,7.33c-8.59,4.51-17.45,8.22-27.58,7.65-8.63-.49-16.5-2.32-22.76-8.81-1.83-1.89-2.28-4.43-4-6.42a23.44,23.44,0,0,1-5.79-13.57c-.77-9.84,5-17.43,9.74-25.24,4.45-7.34,11.46-11.94,18.73-16.08a81.53,81.53,0,0,1,26-9.44c10.14-1.86,17.88,1.95,25.52,7.4,3.25,2.31,4,6.3,6.35,9.22,2.15,2.67,2.13,6,2.63,9.06,1.5,9.27-2.65,17.17-7.59,24.43A89,89,0,0,1,312.91,350.74Z" transform="translate(1.36 -109.4)" style="fill:#5b3107"/><path d="M285.66,225c-2.8,1.71-6,3-7.78,5.91-5.81,9.22-14,16.39-21,24.56-4.71,5.48-8.73,11.48-13.52,16.86-9.79,11-18.28,23.17-29.06,33.28a105.88,105.88,0,0,1-28.4,19.25c-5.16,2.35-10.72,3.85-16,5.87-3,1.12-4.94,3.65-7.28,5.64a36.58,36.58,0,0,0,3.23,15.83c10.31-3.38,19.91-8.4,29.64-13.07,14.79-7.11,28.46-15.8,38.28-29.47a37.75,37.75,0,0,1,4.93-5c9-8.54,16-18.84,24.08-28.16a2.26,2.26,0,0,1,.23-.29c6.73-5.62,10.67-13.86,17.38-19.32,7.29-5.94,14.16-12.35,21.57-18.14,2.06-1.61,4.58-2.95,5.24-5.86-2.72.79-5.43.21-8.16.06C293.1,232.56,288.31,230.61,285.66,225Z" transform="translate(1.36 -109.4)" style="fill:#ba6814"/><path d="M0,421.46H0c0-.12,0-.24,0-.35C0,421.22,0,421.34,0,421.46Z" transform="translate(1.36 -109.4)" style="fill:#77430d"/><path d="M74.38,397a9.44,9.44,0,0,1-6.95-5.31A57.82,57.82,0,0,1,62,378.41c-.67.52-1.28,1.37-2,1.52-9,1.74-16.64,6.65-24.91,10.09-9,3.73-17.23,8.94-26,13.1-2.82,1.34-5.6,2.76-8.38,4.19C.5,411.91.26,416.5,0,421.1c0,.11,0,.23,0,.35l2.15-.71a208.06,208.06,0,0,1,23.43-6.53c7-1.47,13.7-4,20.58-5.94,6.52-1.82,13.16-3.2,19.59-5.25,3.79-1.21,8-1.18,11.34-3.85,0-.19,0-.38,0-.57C76.22,398,75.36,397.11,74.38,397Z" transform="translate(1.36 -109.4)" style="fill:#77430d"/><path d="M408.7,440.49c-1.91-1.06-2.63.77-3.62,1.62-3.33,2.87-7.37,4.53-11.07,6.77V449c3.92,1.59,8.2,1.46,12.28,2.58a121,121,0,0,1,15,5.19c5,2.12,9.82,4.71,14.65,7.22a14.3,14.3,0,0,1,3.07,2.67c3.26,3.19,6.36,6.58,9.79,9.58a16,16,0,0,1,5.53,9.91c7.94-2.89,16.42-2.31,24.6-3.53,10-1.48,20.21-1.79,30.31-2.94a3.25,3.25,0,0,1,2.91,1.18A25.27,25.27,0,0,0,508,464.1a14.44,14.44,0,0,0-8.62-4.25,76.81,76.81,0,0,0-8.66-.44c-6.9-.31-13.82-.43-20.7-.93-11.57-.82-23.31,2.2-34.72-2.61C425.72,451.84,415.93,448.44,408.7,440.49Z" transform="translate(1.36 -109.4)" style="fill:#77430d"/><path d="M80.27,581.49c3.86-5.59,8.32-10.77,12.5-16.14,5.92-7.59,11.63-15.34,17.64-22.87,3.52-4.43,6.77-9.2,10.41-13.56,5.14-6.16,8.8-13.49,15-18.79-.17-.41-.12-.66.41-.56,1.5-2.65,2.2-5.62,3.55-8.36,1.94-4,3.76-7.93,6.64-11.32.57-.67.4-1.37-.29-2.3-1.19.91-2.45,1.75-3.57,2.75-6,5.37-13.52,9.14-18.29,15.76-7.2,10-16.61,18.09-23.72,28-5,7-11.17,13-16,20.07-4.9,7.25-11.2,13.31-16.16,20.39-4.38,6.26-9.59,11.79-14.42,17.61q7.86-.13,15.71-.18C73.37,588.66,77.36,585.71,80.27,581.49Z" transform="translate(1.36 -109.4)" style="fill:#5b3107"/><path d="M135.86,510.09l0,0h0Z" transform="translate(1.36 -109.4)" style="fill:#5b3107"/><path d="M277.42,475.37c-.41-.43-.83-.83-1.49-.57l-6.35,6.33c-2.9,3.11-3.1,7.38-4.47,11.09-2,5.42-4,10.86-5.93,16.31-1.05,3-2.55,5.8-3.62,8.76s.94,5.33,2.18,7.37c2.71,4.46,5,9.19,8.23,13.36,3,3.82,11,5.7,14.87,2.88a44.59,44.59,0,0,1,23.64-9c3.71-.27,7.32-1.7,11.11-1.91.59,0,1.31-.3,1.22-1.07a1.61,1.61,0,0,0-.85-1.07c-6.81-2.5-11.53-7.69-16.39-12.69-.51.38-1.2.8-1.67.35-3.78-3.68-8.24-7-11-11.28a87.24,87.24,0,0,1-8.69-16.55C276.71,483.63,274.47,479.66,277.42,475.37Z" transform="translate(1.36 -109.4)" style="fill:#77430d"/><path d="M426.54,488.79c1-2.78-1.5-4-3-4.62-4.35-1.87-7.95-5-12.56-6.53-8.54-2.88-16.93-2.77-25.61-1A202.65,202.65,0,0,0,359,484.28a28.59,28.59,0,0,0-12,7.44,31.38,31.38,0,0,1-6.07,5.41c-3.13,2-2.17,6.22-3.87,8.87,0,2-.08,13.11,1,13,4.56-.46,3-1,8-2a13.29,13.29,0,0,1,14.45-.78c.61.31,4.8-6.75,5.19-7.18,3.43-3.84,6.88-7.16,12.26-8.81,7.46-2.28,19.25,2.85,21.84,9.12.92,2.24,1.17,4.74,2.6,6.78a15,15,0,0,1,2.89-5.18c1.54-1.88,3.91-1.71,5.49-3.15a50,50,0,0,0-9.12-3.31c-1.89-.59-4.5-1.38-4.28-3.88.24-2.89,1.26-6.13,4.37-7,3.58-1,7.52-.8,11.12-1.79C417.35,490.55,422.34,491.48,426.54,488.79Z" transform="translate(1.36 -109.4)" style="fill:#77430d"/><path d="M198.7,552.24c5.14,3.66,10.9,6.23,16.34,9.36A23.38,23.38,0,0,1,220.9,566c2,2.25,3.27,1.76,5-.16,5-5.64,9.2-12,14.56-17.37,3.57-3.58,6.9-7.4,10.52-10.92,2.07-2,4.63-.21,7-.36-.09-2.74-1.65-4.91-3.33-6.9-2.4-2.85-3.42-6.41-5.24-9.56-1.21-2.1.46-4.36,1.4-6.42,3.25-7.17,6.35-14.39,8.16-22.08-3.36,2.06-5.08,5.64-7.77,8.33-12.4,12.41-24.65,25-37.28,37.13C208.84,542.54,203.42,547,198.7,552.24Z" transform="translate(1.36 -109.4)" style="fill:#77430d"/><path d="M85,455.46c-1.41-2.67-5-3.28-8.56-1.43-7.55,4-14.44,9-21.72,13.41-6.87,4.15-13.41,8.83-20.36,12.8-7.74,4.41-14.86,9.79-22.56,14.18-4.24,2.42-8.36,5-12.47,7.63,0,4,0,8.07,0,12.11,7.35-4.54,14.27-9.8,22-13.68,1.95-1,3.54-2.67,5.37-3.91,9.18-6.24,18.69-12,27.83-18.27,6.79-4.7,14.11-8.61,21-13.12,1.8-1.17,3.88-1.3,5.63-2.49C84.2,460.67,86,457.44,85,455.46Z" transform="translate(1.36 -109.4)" style="fill:#77430d"/><path d="M157.08,342.18c.63-4.27-.84-8.33-1.67-12.34-1.28-6.26-1.81-12.66-3.56-18.84-.49-1.7-.73-1.75-2.34-1.49-8.94,1.41-17.94,2.39-26.85,4a140,140,0,0,0-17.54,4.36,5,5,0,0,0-1.27,8.93c5.5,3.77,9.59,8.73,13.19,14.2,1.24,1.87,3.28,2.59,5.15,3.42a60.49,60.49,0,0,1,9.69,5c.27.18.88-.15,1.34-.24a7.14,7.14,0,0,1,4-2.33c4.91-1.3,9.81-2.71,14.58-4.45C153.71,341.69,155.29,341.38,157.08,342.18Z" transform="translate(1.36 -109.4)" style="fill:#5b3107"/><path d="M229.19,507.83c-10.32-.14-20-3.12-29.66-6.35-6.47-2.16-13.24-3.36-19.87-5-1.13-.29-1.89-.19-2.29,1.06-2.35,7.36-4.68,14.73-7.11,22.06-1.68,5.06-3.55,10.06-5.27,15.1-.58,1.72-1,3.51-1.45,5.26-.37,1.31.46,1.85,1.46,2.08,1.4.32,2.85.45,4.27.65,1.39-.4,3-.51,4.13-1.26,7.14-4.67,14.73-8.54,22.23-12.52,3.34-1.77,6.53-3.8,9.9-5.43A98.59,98.59,0,0,0,229.19,507.83Z" transform="translate(1.36 -109.4)" style="fill:#77430d"/><path d="M471.86,371.12c-8.41,2-15.58,6.74-23.05,10.73a28.06,28.06,0,0,0-6.26,5.11c-5.23,5.25-11.1,9.78-16.37,15-5.8,5.75-13.11,9.9-18.24,16.38-3.77,4.76-8.37,9.37-6.11,16.48a2.89,2.89,0,0,1-.48,2.82c3.43.3,5.06-2.7,7.12-4.42,4.06-3.36,8.3-6.57,11.86-10.53,2.53-2.82,6.45-3.26,9.65-4.86,4.21-2.1,7.93-5,12.31-6.78-1.08-2.58,1.28-3.05,2.63-4,.61-.43,1.62-.22,2.34-.87,5.52-5,12.33-8.21,17.87-13.29,2.36-2.16,4.86-4.51,8.24-5.9,6.35-2.62,7.61-8.72,3.65-13.63C474.17,375.2,473.38,372.33,471.86,371.12Z" transform="translate(1.36 -109.4)" style="fill:#5b3107"/><path d="M435.13,292.5a25.91,25.91,0,0,1,1.81,18c-.16.63-.38,1.22.14,1.7.74.65,1.31,0,2-.32,4.1-2.19,6.47-6.39,10.43-8.79,7.58-4.59,14.33-10.4,21.95-15,6-3.59,11.49-7.94,17.45-11.57,7.55-4.59,14.78-9.74,22.84-13.46,2.12-1,1.24-3.53.87-4.4-1.5-3.57-1.47-7.77-4.26-10.8a70.46,70.46,0,0,1-8.56,5.45c-7.77,4.47-15.44,9.19-23,14-6.42,4.12-13.19,7.62-19.56,11.81C450,283.87,442.51,288.07,435.13,292.5Z" transform="translate(1.36 -109.4)" style="fill:#5b3107"/><path d="M577.81,300.83c1.3-2.74-1.09-4.72-1.71-7-1.08-3.85-1.7-8-4-11.41a8.93,8.93,0,0,1-1.59.89c-9.45,3-18.76,6.39-27.87,10.36a69.8,69.8,0,0,1-6.64,2.85,66.52,66.52,0,0,0-13.71,6.38c3.48,3.63,3.51,3.67,0,7.35-1.86,2-3.86,3.76-5.79,5.64-1.74,1.7-2.5,3.44-.89,5.79s1.63,5.84,4,8a20.39,20.39,0,0,1,2.2-2c8.83-5.95,18.89-9.5,28.24-14.44,2.87-1.52,5.67-3.49,8.78-4.42C565.41,306.89,571.39,303.36,577.81,300.83Z" transform="translate(1.36 -109.4)" style="fill:#77430d"/><path d="M229.19,507.83a98.59,98.59,0,0,1-23.66,15.62c-3.37,1.63-6.56,3.66-9.9,5.43-7.5,4-15.09,7.85-22.23,12.52-1.16.75-2.74.86-4.13,1.26,3.61,1.91,7.64,2.67,11.52,3.46,6.28,1.27,11.86,4.32,17.91,6.12,4.72-5.21,10.14-9.7,15.19-14.57,12.63-12.16,24.88-24.72,37.28-37.13,2.69-2.69,4.41-6.27,7.77-8.33,2.42-2.62,1.95-6.29,3.63-9.22-2,.44-2.92,1.94-4.1,3.1-6,5.92-12.06,11.75-17.79,17.9a10.29,10.29,0,0,1-9.11,3.53C230.75,507.44,229.89,507,229.19,507.83Z" transform="translate(1.36 -109.4)" style="fill:#ba6814"/><path d="M277.42,475.37c-2.95,4.29-.71,8.26.77,12.27a87.24,87.24,0,0,0,8.69,16.55c2.78,4.33,7.24,7.6,11,11.28.47.45,1.16,0,1.67-.35-3.38-7-2.9-14.22-1.34-21.5.16-.77.37-1.38-.13-2-1.36-.62-2.64-1.77-1.92-3.11.88-1.62,2.22-.6,3.2.41a43.61,43.61,0,0,1,9.46-13.83c-1-.67-.77-1.54-.74-2.59.09-2.76,1.25-5.22,2-7.74,1.78-5.77,2.93-11.84,6.09-17.06,2.67-4.45,7.68-7.12,9.66-12.24.41-1.08,1.68-1.49,3.07-1.65,4.31-.49,8.58-1.33,12.88-1.95a5.63,5.63,0,0,1,5.33,1.78c1.15,1.27,2.29,2.79,3.76,3.5,6.69,3.18,10.88,8.5,13.7,15.12l3.7-.94A113.52,113.52,0,0,0,357,431.94a9.08,9.08,0,0,1-1.11-1.48c-2-4.37-4.37-6-9.27-5.44-7.78.86-14.67,4.05-21.1,8.5-3.09,2.14-7,3.54-8.76,6.93-3.12,6.11-8.33,10.66-11.4,16.87-2,4.09-5.11,7.73-6.47,12.24-1.06,3.52-3,6.73-4,10.18-.84,2.91-2.05,2.6-3.92,1.78C286.45,479.51,281.94,477.42,277.42,475.37Z" transform="translate(1.36 -109.4)" style="fill:#5b3107"/><path d="M364.62,452.23c-2.82-6.62-7-11.94-13.7-15.12-1.47-.71-2.61-2.23-3.76-3.5a5.63,5.63,0,0,0-5.33-1.78c-4.3.62-8.57,1.46-12.88,1.95-1.39.16-2.66.57-3.07,1.65-2,5.12-7,7.79-9.66,12.24-3.16,5.22-4.31,11.29-6.09,17.06-.78,2.52-1.94,5-2,7.74,0,1-.23,1.92.74,2.59,2.3-2.23,4.69-4.37,6.91-6.68,3.86-4,8.94-5.52,14-7.3,4.67-1.64,9.37-3.11,14.13-4.45C350.7,454.7,357.69,453.6,364.62,452.23Z" transform="translate(1.36 -109.4)" style="fill:#77430d"/><path d="M576.13,282.46c1.13,6.34,3.77,12.21,5.6,18.32a11.79,11.79,0,0,1,1.53-1,108.75,108.75,0,0,1,19.34-6.31c4.21-1,8.41-2.2,12.79-2.37,1.34-.05,2.64,0,2.72,1.7,0,1.19.1,2.59-1.3,3.26-4.18,2-8.62,3.25-12.92,4.88-6.35,2.42-13,4.16-19,7.47,2.28,5.66,3.86,6.35,9.66,3.22,7-3.75,14.18-7,21.21-10.55a54.78,54.78,0,0,0,19-16.3,6.5,6.5,0,0,0,.52-7.79c-2.55,2.72-5,3.6-8.73,1.42-2-1.16-4.26-2.87-7-2.49-4,.56-8.07,1.51-12.12,1.73C596.83,278.21,586.55,280.78,576.13,282.46Z" transform="translate(1.36 -109.4)" style="fill:#77430d"/><path d="M120.89,424.57c-6.78,6-10.93,13.24-16.54,19.21-1.81,1.92-.59,2.66,1.19,2.64,5.81,0,11.6-.29,17.41-.67,8.21-.55,16.25-2.42,24.46-2.72,2.2-.08,4.2-1.14,6.47-1,1.42.06,1.52-1.05,1-2.41a109.63,109.63,0,0,0-8.21-18.27c-2.09-3.57-4-7.24-6.85-10.28-1.14-1.2-2.15-1.59-3.35-.16C131.82,416.45,124.56,419.08,120.89,424.57Z" transform="translate(1.36 -109.4)" style="fill:#77430d"/><path d="M408.7,440.49c7.23,7.95,17,11.35,26.59,15.38,11.41,4.81,23.15,1.79,34.72,2.61,6.88.5,13.8.62,20.7.93a76.81,76.81,0,0,1,8.66.44A14.44,14.44,0,0,1,508,464.1c.78-1.05,0-1.75-.43-2.65-1.9-4.07-3.82-8.15-5.42-12.35-.43-1.12-.62-1.22-1.66-1.1-10.43,1.25-20.82.8-31.28.1-6.13-.41-12.36-.35-18.5-.79a54,54,0,0,1-15.85-3.44c-2.61-1-5.42-1.3-8-2.7-3-1.68-6.33-2.74-7.25-6.71-.44-1.88-1.45-2.29-3.13-.76C414,436,411,437.9,408.7,440.49Z" transform="translate(1.36 -109.4)" style="fill:#5b3107"/><path d="M423.68,274.53c1.07,3,3.63,5.06,4.79,8,.66,1.66,2.32,2.12,4,.85,7-5.28,14.9-9.13,22.32-13.75,10.61-6.6,21.57-12.63,32.27-19.12,7.73-4.69,15.71-8.82,22.05-15.37,3.63-3.74,3.28-5.37-1.05-7.18-4.94,3.13-10.4,5.22-15.57,7.9-6,3.12-11.89,6.56-17.73,10-7,4.08-14,8.27-21,12.36C443.92,264,434.9,271.26,423.68,274.53Z" transform="translate(1.36 -109.4)" style="fill:#5b3107"/><path d="M556.85,216.86c-1,2,1.26,3,1.4,4.62.33,3.88,3.15,6.73,3.93,10.54.94,4.53,3.22,5.21,7.15,2.73,10.55-6.68,21.27-13.22,29.33-23,3.72-4.53,7.15-9.3,6.47-15.73-.25-2.38-1.06-4.21-3.49-5-1.4,1.81-4.09.47-5.5,2.26.19,2.38-.67,3.89-3.27,4.18a11,11,0,0,0-5.49,2.58c-1.21,2.31-4,2.22-5.71,3.7-6.61,5.7-14.52,9.25-21.94,13.61C558.41,218.09,557.7,217.66,556.85,216.86Z" transform="translate(1.36 -109.4)" style="fill:#5b3107"/><path d="M116.54,364.51c-2.82,4.73-7.69,3.45-12,4.15-6,1-12,.36-18,1.18-3.15.42-3.18,2.56-3.34,4.31-.18,1.94,1.92,1.42,3.25,1.73,9.44,2.13,19.08,2.81,28.67,3.94A38.77,38.77,0,0,1,128.17,384a109.34,109.34,0,0,0,12.68,5.27,7.31,7.31,0,0,0,7.22-1c2-1.31,3.48-3.31,6.12-3.88,1.79-.38,1.17-1.85.05-3.09-4-4.42-9.18-7.2-14.06-10.38a126,126,0,0,0-17.94-9.5C119.08,360,118.59,363.63,116.54,364.51Z" transform="translate(1.36 -109.4)" style="fill:#77430d"/><path d="M470.88,173.93c-.48-4.2-3.66-6.84-5.81-10.06-.75-1.12-2.12-2-2.38-3.23-.88-4-2.66-2.38-4.68-1.09-9.11,5.79-18.41,11.27-27.71,16.74-5.78,3.4-11.83,6.41-17.27,10.42-3.08,2.27.32,3.9.44,5.79s2.09.41,2.91-.1c4.68-2.93,10-4.24,15.1-6a3.14,3.14,0,0,1,4.15,3.46c-.24,2.18.3,4.22.41,6.33,2.07-1.54,4.06-3.2,6.22-4.59q10.25-6.56,20.6-12.93C465.49,177,467.4,174.13,470.88,173.93Z" transform="translate(1.36 -109.4)" style="fill:#ba6814"/><path d="M511.55,244.21c1.3,4.41,2.69,8.8,3.86,13.24.52,1.94,1.41,2.39,3.17,1.61,3.3-1.47,6.79-2.6,9.89-4.4,9.59-5.56,19.95-9.54,29.73-14.71,2.21-1.17,2.86-2.27,2.11-4.3-1.81-4.88-3.75-9.71-5.64-14.56-.81.16-1.63-.14-2.45.45-6.51,4.63-13.72,8.09-20.55,12.18-5.3,3.18-10.52,6.48-15.7,9.84C514.51,244.51,513.17,245,511.55,244.21Z" transform="translate(1.36 -109.4)" style="fill:#5b3107"/><path d="M503.44,510.16c4.63-5.21,6.56-11.46,7.1-18.25-2.72.42-5.19-.93-7.92-.93-9.82,0-19.54,1.3-29.3,1.95-5.74.37-11.55.88-17.08,2.83-2.05,1.6-.86,3.94-1.16,5.87-.5,3.21-2.26,6-2.54,9.22,2.59-2.18,5.82-1.84,8.79-2,7-.26,14-.68,21-1.47,2.22-.25,4.9-2.49,7.11.28h0C492.74,505.44,499.86,506.69,503.44,510.16Z" transform="translate(1.36 -109.4)" style="fill:#5b3107"/><path d="M521,479.32c-1.57,3.22-.46,6.63-.5,9.9-.07,5.67-1,10.88-4.06,15.75-2.2,3.54-1.64,4.77,2.14,4.21,9.42-1.4,19.07-1.7,28-5.84a18.55,18.55,0,0,0,10.12-11.49c-1.22-1.22-2.39-2.47-3.66-3.63-2.3-2.11-4-5.09-7.55-5.43s-7-.43-10.42-.93C530.36,481.18,525.48,481.38,521,479.32Z" transform="translate(1.36 -109.4)" style="fill:#ba6814"/><path d="M576.13,282.46c10.42-1.68,20.7-4.25,31.31-4.85,4-.22,8.07-1.17,12.12-1.73,2.71-.38,5,1.33,7,2.49,3.68,2.18,6.18,1.3,8.73-1.42.59-3.56-1-6.21-3.69-8.22-7.59-5.56-16.18-6-25.22-5.39-6.42.41-12.67,1.61-19,2.41-4,.5-7.67,2.09-11.71,2.12-1.36,0-1.44,1.18-1.37,2.48A65,65,0,0,0,576.13,282.46Z" transform="translate(1.36 -109.4)" style="fill:#5b3107"/><path d="M429.75,215c0,4.21,3.09,7.08,4.74,10.56.79,1.66,2,.48,3-.38,2-1.84,3.83-3.81,6-5.48,6.19-4.75,13.25-8.08,19.74-12.35,5.56-3.66,11.48-6.78,17.31-10,2.34-1.29,2.28-2.48,1-4.69-2.28-4-3.92-8.38-7-11.92a18.48,18.48,0,0,1-1.83,1.82c-5.76,4.22-11.62,8.32-17.29,12.65-3.78,2.9-7,6.75-11,9.07C439,207.34,434.77,211.66,429.75,215Z" transform="translate(1.36 -109.4)" style="fill:#5b3107"/><path d="M522.26,302.93A66.52,66.52,0,0,1,536,296.55a69.8,69.8,0,0,0,6.64-2.85c9.11-4,18.42-7.32,27.87-10.36a8.93,8.93,0,0,0,1.59-.89,38.28,38.28,0,0,0-1.15-10.87c-.28-1.32-1-2.36-2.61-1.77-4.65,1.74-9.31,3.44-13.88,5.36-7.79,3.26-15.56,6.51-23.48,9.44a186.66,186.66,0,0,0-17.19,7.79c-2.08,1-3.33,6.76-2.3,8.78a2.19,2.19,0,0,0,3.07,1.06C517.24,301.28,519.75,302,522.26,302.93Z" transform="translate(1.36 -109.4)" style="fill:#5b3107"/><path d="M423,266.14c4.75-2.71,9.45-5.53,14.27-8.1,7.14-3.81,13.78-8.5,21.39-11.5,3.57-1.41,6.75-3.83,10.12-5.75,7.08-4,14.57-7.19,21.63-11.2a5.81,5.81,0,0,1,2-.86c2-.34,5.06-1.07,5-2.84a10.69,10.69,0,0,0-3.9-7.85c-1.18-.94-3.36.1-4.65.91-6.82,4.28-14.28,7.34-21.14,11.57-10.45,6.45-21.39,12.1-31.69,18.83a8,8,0,0,1-2.47.63,28.67,28.67,0,0,1-5.23,4.52C422.7,258.36,421.52,261.16,423,266.14Z" transform="translate(1.36 -109.4)" style="fill:#ba6814"/><path d="M157.35,379.76l.81,1c.1,0,.27,0,.3.11a3.05,3.05,0,0,1,.17.61c1.41,4.17-2.51,4.92-4.54,6.8-.37.34-1.38.29-1.9.84-5.14,5.43-11.29,4.14-16.69,1.44-11.19-5.59-22.68-9.44-35.3-9.37a1.27,1.27,0,0,1-2.07-.06l-1-.07c-1.9,2-4.33.62-6.49,1-1.74.27-3.17.28-3,2.55,3.94,1.08,8,.9,12,1.34a84.33,84.33,0,0,1,19.59,4.33c4.51,1.62,9.26,2.65,13.22,5.55,3.54-1.08,5.48,1.78,7.78,3.4,1.4,1,2.4,1.32,3.81.49l2.16-1.95c0-.43.27-.57.66-.51,7-6.79,15.17-11.81,23.67-16.44,1.74-.94,4.48-2,4.33-4.06-.11-1.56-2.68-2.62-4.49-3.38-11.9-5-23.18-11.34-35.06-16.42a71.53,71.53,0,0,1-11.06-5.48,23.44,23.44,0,0,0-6.7-2.53c-1.11,1.82.35,3,1.08,4.35,5.26,2.91,10.9,5,16.22,7.83,3.4,1.79,6.8,3.64,10.29,5.29,4.57,2.17,9.35,4,13.49,6.95,4.37,3.13,4.3,3.21-.56,5.64C157.76,379.07,157.59,379.47,157.35,379.76Z" transform="translate(1.36 -109.4)" style="fill:#ba6814"/><path d="M426.53,218.72c.06-2.87-3.5-8.8-5.91-9.86a2.64,2.64,0,0,0-3,.49c-2.76,2.25-5.56,4.46-8.48,6.5q-7.94,5.55-15.55,11.53a12.8,12.8,0,0,0-4.81,13.08c.81,3.6.46,7.35,2.1,10.92.85,1.84,2.21,3.16,3.08,4.87,2.12-3.21,3.88-6.76,6.45-9.55,5.48-5.95,9.84-12.87,16-18.24.27-.24.62-.55.67-.86.63-4.09,4.42-5.68,6.65-8.5A1.83,1.83,0,0,1,426.53,218.72Z" transform="translate(1.36 -109.4)" style="fill:#77430d"/><path d="M479,179.41c0,.73-.4,1.77-.05,2.15,2.65,2.84,3.42,6.71,5.55,9.82,1.31,1.91,2.62,2.44,4.89.93,8.43-5.59,17.84-9.54,26.09-15.46.74-.54,1.89-.49,2.71-1,5.8-3.3,6.13-4.79,2.47-12-1.1-2.18-2.58-4.17-3.89-6.25-2.54,3-6.39,3.94-9.52,6-4.65,3.06-10,5-14.63,8C488.17,174.43,482.85,175.66,479,179.41Z" transform="translate(1.36 -109.4)" style="fill:#5b3107"/><path d="M550.08,210.06c-1-2.75-2.61-5.16-3.84-7.78-1.93-4.13-4.43-4.52-9-2.66-9.13,3.74-18.39,7.16-27.41,11.17-3.16,1.41-6.13,3.39-9.41,4.67-2.47,1-3.18,2.09-1.9,4.9,1.88,4.08,3.72,5.87,7.81,4.84,2.57-.65,4.7.38,7,.62a104.77,104.77,0,0,1,10.24-4.73c3.19-1.24,5.94-3.24,9.21-4.32C538.67,214.83,544.33,212.33,550.08,210.06Z" transform="translate(1.36 -109.4)" style="fill:#ba6814"/><path d="M512.39,149.22c-1-4.42-5-6.47-7.6-9.6-.74-.88-1.6-.41-2.37-.11-6.94,2.72-13.88,5.47-20.82,8.2a81.71,81.71,0,0,0-17.16,8.71,88.63,88.63,0,0,0,10.16,14.86,18.72,18.72,0,0,1,2.83-2.33c5.84-3.19,11.19-7.14,16.93-10.5,4.94-2.9,10.23-5.17,14.94-8.42C510.34,149.31,511.35,149.42,512.39,149.22Z" transform="translate(1.36 -109.4)" style="fill:#ba6814"/><path d="M515.84,330.37c-1.28-2.87-2.65-5.71-3.81-8.64-.76-1.93-1.76-2.15-3.71-1.57-4.59,1.36-8.52,4.08-12.75,6.13-9.5,4.59-19.05,9.13-28.32,14.23-1.92,1.05-2,2.35-1.6,3.19,1.61,3.61,2.29,7.74,5.33,10.63a14,14,0,0,1,2.77-2.41c6.36-4.06,13.38-6.89,19.9-10.68C500.75,337.12,508.42,334,515.84,330.37Z" transform="translate(1.36 -109.4)" style="fill:#77430d"/><path d="M474.73,359.69c.66,4.48,4.6,6.19,7.46,8.77,4.06,3.67,6.69,2,10.13-1.72,3.09-3.34,7.79-5.27,11.93-7.54,6.06-3.3,12.19-6.46,18-10.19,1.65-1.06,2.11-2.4.89-4-1.69-2.24-1.72-5.32-3.78-7.35-5.23,2.58-10.31,5.58-15.75,7.59-3.17,1.18-5.79,3.1-8.77,4.47-4.85,2.23-9.83,4.15-14.31,7.21C478.88,358.05,477.69,361.05,474.73,359.69Z" transform="translate(1.36 -109.4)" style="fill:#77430d"/><path d="M550.08,210.06c-5.75,2.27-11.41,4.77-17.27,6.71-3.27,1.08-6,3.08-9.21,4.32a104.77,104.77,0,0,0-10.24,4.73c2.14,2.65,2.93,5.18.47,8.32-2.24,2.86-4.7,6-2.28,10.07,1.62.76,3,.3,4.42-.65,5.18-3.36,10.4-6.66,15.7-9.84,6.83-4.09,14-7.55,20.55-12.18.82-.59,1.64-.29,2.45-.45C552.48,217.69,552.4,213.41,550.08,210.06Z" transform="translate(1.36 -109.4)" style="fill:#77430d"/><path d="M529.89,453.66c-2.27-1.91-5.41-1.14-7.87-2.58-1-.6-1.4.48-1.88,1.2a13,13,0,0,0-1.61,10.43c.45,1.86-.79,4,.92,5.55,8.38.63,15.83,4.3,23.26,7.65,7.8,3.51,8.51,3.69,14-3a6.51,6.51,0,0,1,.54-.51v0c-1.12-.91-1.58-1.86-.19-2.93l-1.62-2.83c-7-5.77-15.14-8.93-23.69-11.4-.52-.15-.89-.82-1.33-1.25h.05c-.11,0-.3.15-.32.12A2.54,2.54,0,0,1,529.89,453.66Z" transform="translate(1.36 -109.4)" style="fill:#5b3107"/><path d="M522.59,336.1c1.34,2.56,2.65,5.13,4,7.67.53,1,1.19,2.21,2.52,1.35,2-1.28,4.34-1.76,6.18-3,7.66-5.28,16.16-9,24.24-13.5,7.71-4.3,15.86-7.83,23.92-11.45,1.33-.59.82-.9.77-1.73-.17-2.5-1.73-4.24-3-6.17-4.27,1.35-8.2,3.52-12.3,5.25C559.83,318.35,551,323,542,327.27,535.59,330.3,529.07,333.16,522.59,336.1Z" transform="translate(1.36 -109.4)" style="fill:#77430d"/><path d="M429.75,215c5-3.37,9.29-7.69,14.64-10.73,4.07-2.32,7.25-6.17,11-9.07,5.67-4.33,11.53-8.43,17.29-12.65a18.48,18.48,0,0,0,1.83-1.82c0-2.93-1.91-4.84-3.66-6.83-3.48.2-5.39,3.08-8,4.71q-10.37,6.38-20.6,12.93c-2.16,1.39-4.15,3.05-6.22,4.59-2.11,3.15-5.77,4.29-8.65,6.42-3.13,2.32-2.68,4.7-1.21,7.36A56.83,56.83,0,0,0,429.75,215Z" transform="translate(1.36 -109.4)" style="fill:#77430d"/><path d="M522.59,336.1c6.48-2.94,13-5.8,19.45-8.83,9-4.24,17.79-8.92,26.93-12.79,4.1-1.73,8-3.9,12.3-5.25-1-2.86-1.26-6-3.46-8.4-6.42,2.53-12.4,6.06-19.07,8.07-3.11.93-5.91,2.9-8.78,4.42-9.35,4.94-19.41,8.49-28.24,14.44a20.39,20.39,0,0,0-2.2,2C520.86,331.7,520.85,334.32,522.59,336.1Z" transform="translate(1.36 -109.4)" style="fill:#ba6814"/><path d="M456.24,495.76c5.53-1.95,11.34-2.46,17.08-2.83,9.76-.65,19.48-1.95,29.3-1.95,2.73,0,5.2,1.35,7.92.93a22.67,22.67,0,0,0,1.63-11,3.25,3.25,0,0,0-2.91-1.18c-10.1,1.15-20.32,1.46-30.31,2.94-8.18,1.22-16.66.64-24.6,3.53C455.53,489.25,454.59,492.77,456.24,495.76Z" transform="translate(1.36 -109.4)" style="fill:#ba6814"/><path d="M426.53,218.72a1.83,1.83,0,0,0-2.87.38c-2.23,2.82-6,4.41-6.65,8.5-.05.31-.4.62-.67.86-6.12,5.37-10.48,12.29-16,18.24-2.57,2.79-4.33,6.34-6.45,9.55,2.31,3.92,6.5,4,10.23,4.71a2.83,2.83,0,0,0,3.18-2.9c-.13-3.35,1.85-5.54,3.94-7.57,6-5.83,11.35-12.37,18.18-17.3,2.91-2.1,3.2-4.64,1.69-7.43C429.81,223.31,428.66,220.68,426.53,218.72Z" transform="translate(1.36 -109.4)" style="fill:#5b3107"/><path d="M587.38,200a11,11,0,0,1,5.49-2.58c2.6-.29,3.46-1.8,3.27-4.18-2.5-2.73-6-1.89-9.07-2.54-3.71-.79-7.64.16-11.24-1.41-9.38.91-18.06,4.67-27.16,6.73-.72.16-2.55.42-1.36,2.14,2.62,3.8,3.66,8.52,7,11.93a5.08,5.08,0,0,1,2.66-1.89c7.63-1.38,14.69-4.88,22.27-6.27C582,201.42,584.22,198.62,587.38,200Z" transform="translate(1.36 -109.4)" style="fill:#ba6814"/><path d="M207.49,364.08c-.93.78-1.53,1.13.23,2.05s2.88,3,4.06,4.91c2.1,3.39,5.2,6.23,8.2,8.93,1.34,1.21,3.32.08,4.65-.82,4.12-2.8,7.69-6.36,12.44-8.31,1.8-.73,2.81-2,1-4.58-3.47-4.9-7.2-9.78-8.52-15.9-.28-1.31-1-2-2.38-.9C220.78,354.56,213.64,358.65,207.49,364.08Z" transform="translate(1.36 -109.4)" style="fill:#644100"/><path d="M426.54,488.79c-4.2,2.69-9.19,1.76-13.73,3-3.6,1-7.54.75-11.12,1.79-3.11.9-4.13,4.14-4.37,7-.22,2.5,2.39,3.29,4.28,3.88a50,50,0,0,1,9.12,3.31c4.06,1.18,8.11,2.52,12.4,2.46,2.45,0,4.7-2.4,7.34-.72,3-2.27,2.6-5.85,2.27-8.66-.43-3.71-1.49-7.61-4.41-10.48l-1.3-1.23Z" transform="translate(1.36 -109.4)" style="fill:#ba6814"/><path d="M520.14,155c-.09.47-.42,1.09-.23,1.37a90,90,0,0,1,5.46,10.72c1.1,2.32,2.81,3.43,5.14,1.28,7.12-6.54,15.74-11.66,20.23-20.69a22.15,22.15,0,0,0,2.54-8.6c.22-3.84-1.19-6-5.07-6.56a8.31,8.31,0,0,1-1.73-.61c-1.28,1.47-2.47,3.09-3.78,4.44-2.56,2.63-2.81,6.4-5.35,9-4.52,4.64-10.68,6.57-15.89,10.06C521.22,155.54,520.59,155.12,520.14,155Z" transform="translate(1.36 -109.4)" style="fill:#5b3107"/><path d="M334.24,506.85c-3.9-3.7-9-2.05-13.5-2.85-5.06-.89-10.29-1-15.23-2.27-2.07-.53-3.59-3.17-5.36-4.86-.12,2.89-.57,5.8-.31,8.65.5,5.48,3.41,9.67,7.89,12.79l25.93,2.7c3.08,1.1.59-1.93,1.7-2.28C333.77,514.89,335,510.78,334.24,506.85Z" transform="translate(1.36 -109.4)" style="fill:#5b3107"/><path d="M263.75,468.64c-5.89,5-11.16,10.76-17.19,15.66-11.3,9.21-23.55,13.24-38.22,9.44-5.76-1.49-11.77-2.54-17.61-3.89-4.19-1-8.35-2.5-12.57-3.64a6.91,6.91,0,0,0-2.12-.4c-1.57.1-3.4.06-3.9,2s1.25,2.4,2.44,3.18c6.53.15,12.79,1.71,19.06,3.37,10.86,2.86,21.33,7.32,32.77,7.84,4.45.21,8.28-.72,11.74-3.69,9.87-8.46,18.29-18.33,27.06-27.85.48-.53,1-1.13.43-1.93A1.16,1.16,0,0,0,263.75,468.64Z" transform="translate(1.36 -109.4)" style="fill:#ba6814"/><path d="M416.83,148.38c-.48-3.35-3-5.46-4.81-8a8.31,8.31,0,0,0-1.79-1.86c-2.25-1.72-2.9-6.09-5.68-5.84-3.28.31-6.63,2.33-9.49,4.29-6.12,4.19-12.47,8-18.78,11.91-1.66,1-.23,2.19-.2,3.16.05,1.46,1.36,1,2.24.47a41.31,41.31,0,0,1,8.69-4.6c.58-.2,1.09-.57,1.66-.81,4.43-1.89,6.67-.52,6.87,4.16a15.89,15.89,0,0,1-4.37,12.33c2.65,1.28,3.07-1.76,4.71-2.46C403.45,157.83,410.15,153.11,416.83,148.38Z" transform="translate(1.36 -109.4)" style="fill:#5b3107"/><path d="M435.13,292.5c7.38-4.43,14.91-8.63,22.1-13.35,6.37-4.19,13.14-7.69,19.56-11.81,7.53-4.84,15.2-9.56,23-14a70.46,70.46,0,0,0,8.56-5.45c.85-2-.31-3.74-1.41-4.94s-2.25.58-3.1,1.23c-6.49,5-13.77,8.69-20.8,12.78q-14,8.16-28,16.32c-6.3,3.68-12.25,7.93-18.82,11.15C433,286,432.77,288.07,435.13,292.5Z" transform="translate(1.36 -109.4)" style="fill:#77430d"/><path d="M384,217.94c-2.09,1.35-2.27,2.74-.37,4.41.9.8,1.45,2,2.29,2.89a3.26,3.26,0,0,0,4.88.43c3.67-2.91,7-6.37,11-8.68,6.55-3.79,11.85-9.26,18.55-12.87,4.05-2.19,7.42-5.68,11-8.69a6.13,6.13,0,0,0,1.45-2.54c1.08-2.87.38-3.8-2.62-3.13-5.55,1.25-10.15,4.44-14.92,7.4-8.91,5.52-17.92,10.86-26.11,17.48C387.55,215.92,385.18,216.1,384,217.94Z" transform="translate(1.36 -109.4)" style="fill:#77430d"/><path d="M443.62,134.17a4.46,4.46,0,0,0-.77-3.09c-2.1-2.55-4-5.26-6-7.94-2.83-3.93-6.5-1.89-9.61-1-4.75,1.42-9.28,3.59-13.9,5.48-4.37,1.79-4.66,3.26-1.91,7,3,4.08,6.63,7.75,8.69,12.5,2.81-2.77,6.16-4.58,9.66-6.41C434.35,138.39,439.53,137.41,443.62,134.17Z" transform="translate(1.36 -109.4)" style="fill:#5b3107"/><path d="M386.15,162.12A46.82,46.82,0,0,1,391,157.4c2.41-1.76,1.93-4.44,2.21-6.67.24-1.9-1.47-1.56-2.95-1-4.72,1.82-8.52,5.16-12.83,7.59-7,4-12.33,10.17-19.59,13.76-2.53,1.25-4.35,3.93-6.84,5.55-1.21.79-1.24,1.68-.37,3.07,4.4,7,6.13,7.46,11.85,1.83,5.25-5.17,11.92-8.42,17.29-13.43C382,166,384.13,163.79,386.15,162.12Z" transform="translate(1.36 -109.4)" style="fill:#5b3107"/><path d="M512.39,149.22c-1,.2-2.05.09-3.09.81-4.71,3.25-10,5.52-14.94,8.42-5.74,3.36-11.09,7.31-16.93,10.5a18.72,18.72,0,0,0-2.83,2.33c-1.49,2.28,1.19,3.1,1.73,4.66.46,1.31,1.74,2.32,2.66,3.47,3.86-3.75,9.18-5,13.62-7.81,4.65-3,10-4.95,14.63-8,3.13-2.06,7-3,9.52-6C517,153.94,514.07,151.9,512.39,149.22Z" transform="translate(1.36 -109.4)" style="fill:#77430d"/><path d="M450.34,144.62c7.74-4,13.41-9.75,16.11-17.9.69-2.08.69-4.5-2.7-6-4.46-2-8.71-4-13.68-4.54-4.14-.46-7.56,1.53-11.32,2.3-1.14.24-.88,1.24-.24,2a43.87,43.87,0,0,0,3.16,4.08C447.19,130,449.25,137,450.34,144.62Z" transform="translate(1.36 -109.4)" style="fill:#5b3107"/><path d="M519.33,305.34c-.69-.86-1.68-.63-2.8-.18-3.82,1.54-7.8,2.74-11.48,4.53-7.24,3.52-14.17,7.72-21.53,10.95-7,3.08-13.35,7.43-20.43,10.35-2.06.85-1.13,2.39-.43,3.72.89,1.69,1.29,4.21,4.22,2.53,2.75-1.57,5.74-2.81,8.4-4.39,9.43-5.62,19.82-9.27,29.23-15,3.51-2.12,7.11-4.62,11.3-5.81,1.57-.45,2.73-2.41,4.05-3.71C520.94,307.31,520.4,306.39,519.33,305.34Z" transform="translate(1.36 -109.4)" style="fill:#5b3107"/><path d="M423.68,274.53c11.22-3.27,20.24-10.55,30.11-16.31,7-4.09,14-8.28,21-12.36,5.84-3.4,11.71-6.84,17.73-10,5.17-2.68,10.63-4.77,15.57-7.9-3.47-1.27-6.4.86-9.37,1.82a99.59,99.59,0,0,0-14.36,6.12c-10.16,5.19-20.24,10.52-30.12,16.25-7.85,4.56-15.91,8.76-23.79,13.28a74.73,74.73,0,0,0-6.84,5L422.27,273Z" transform="translate(1.36 -109.4)" style="fill:#77430d"/><path d="M359.14,206a8.27,8.27,0,0,0,3.82,2.83c3.87,1.8,6.34.67,7-3.46a8.53,8.53,0,0,1,5-6.4c4.22-1.83,6.57-5.45,9.8-8.19,2.07-1.75,3.87-3.81,5.82-5.7,4.31-4.17,4.36-5.64.26-10.22-.73-.83-1.53-1.61-2.3-2.4C378.81,183.62,365.47,191.72,359.14,206Z" transform="translate(1.36 -109.4)" style="fill:#5b3107"/><path d="M459.85,326.82c1.68,1.78,3.56.58,5-.14,7.17-3.62,14.18-7.54,21.31-11.24s14.33-7.09,21.33-10.94c2.25-1.23.84-4,.84-6,0-3.33-.84-3.57-3.8-1.94-7.9,4.34-15.7,8.81-23.32,13.63-5.62,3.56-11.74,6.31-17.34,10a6.7,6.7,0,0,1-2.08.74C457.8,321.91,457.13,323.94,459.85,326.82Z" transform="translate(1.36 -109.4)" style="fill:#5b3107"/><path d="M352,419.67c-2-3.52-6.53-5.16-11.34-3.9-5.77,1.52-11.72,1.91-17.57,3-.69.12-1.51-.25-1.89.63-3,6.79-9.18,10.73-14.15,15.67-4.75,4.73-7.31,10.34-9,16.46-.89,3.16-3.42,6-2.2,9.65,4.05-4.31,6.43-9.75,9.84-14.49,5.43-7.57,11.6-14.53,19.47-19.52C333.26,422,342.25,419.15,352,419.67Z" transform="translate(1.36 -109.4)" style="fill:#5b3107"/><path d="M474.73,359.69c3,1.36,4.15-1.64,5.8-2.77,4.48-3.06,9.46-5,14.31-7.21,3-1.37,5.6-3.29,8.77-4.47,5.44-2,10.52-5,15.75-7.59-.66-2.68-3.31-4.39-3.52-7.28-7.42,3.59-15.09,6.75-22.19,10.88-6.52,3.79-13.54,6.62-19.9,10.68a14,14,0,0,0-2.77,2.41Z" transform="translate(1.36 -109.4)" style="fill:#ba6814"/><path d="M557.25,472.41a6.51,6.51,0,0,0-.54.51c-5.49,6.68-6.2,6.5-14,3-7.43-3.35-14.88-7-23.26-7.65.39,3.7-.63,7.61,1.57,11.06,4.46,2.06,9.34,1.86,14.05,2.54,3.45.5,6.95.61,10.42.93s5.25,3.32,7.55,5.43c1.27,1.16,2.44,2.41,3.66,3.63C559.74,485.45,562,479,557.25,472.41Z" transform="translate(1.36 -109.4)" style="fill:#77430d"/><path d="M391.67,169.28c1.41,2.4,2.81,4.8,4.22,7.19,1,1.69,2,2.29,3.74.62,6.24-6.14,13.76-10.39,21.45-14.39,1.65-.87,2.75-2,1.17-4.1-1.4-1.81-1.06-4.54-3-6.15a8.16,8.16,0,0,1-1.23.81C408.54,157.45,398.88,161.34,391.67,169.28Z" transform="translate(1.36 -109.4)" style="fill:#5b3107"/><path d="M359.14,206c6.33-14.24,19.67-22.34,29.46-33.54a19.05,19.05,0,0,1-1.49-1.63c-1.86-2.49-3.3-2-5.57,0a196.15,196.15,0,0,1-24.19,18c-1.63,1-1.44,3-1.45,4.18C355.85,197.48,355.89,202.18,359.14,206Z" transform="translate(1.36 -109.4)" style="fill:#77430d"/><path d="M450.3,485c-1.12,1.89-3.06,1.2-4.66,1.42-4.51.6-8.93,1.93-13.53,1.87-1,1.22.14,2.1.59,3,2.3,4.49,3.66,9.08,2.47,14.19-.18.73.34,1.63.54,2.45,6-1.74,11-5.26,16.19-8.54A17.52,17.52,0,0,0,450.3,485Z" transform="translate(1.36 -109.4)" style="fill:#ba6814"/><path d="M157.08,342.18c-1.79-.8-3.37-.49-5.25.2-4.77,1.74-9.67,3.15-14.58,4.45a7.14,7.14,0,0,0-4,2.33c4.73,3.26,10,5.29,15.34,7.42,3.8,1.54,7.05,4.32,11.13,5.37.67.18,1.24.93,2,.35s.25-1.27-.07-1.93c-2.19-4.4-2.25-9.35-3.36-14C157.92,344.94,157.36,343.6,157.08,342.18Z" transform="translate(1.36 -109.4)" style="fill:#77430d"/><path d="M430.46,509.54c-2.64-1.68-4.89.69-7.34.72-4.29.06-8.34-1.28-12.4-2.46-1.58,1.44-4,1.27-5.49,3.15a15,15,0,0,0-2.89,5.18h0a1.35,1.35,0,0,1,0,2.1h0c1.24,1.25,2.48,2.51,3.73,3.76a52.39,52.39,0,0,0,14.36-.52c3.52-.69,10.3-7.45,10.58-11C431,510.17,430.65,509.84,430.46,509.54Z" transform="translate(1.36 -109.4)" style="fill:#5b3107"/><path d="M422.36,150.07c-.24,1.81,1.11,3.14,1.53,4.79,1,3.69,2.09,3.73,5.63,1.93,5.63-2.86,11.3-5.57,16.22-9.64,1.28-1.06,2.31-2.2,1.67-3.69-1.15-2.69-.91-5.86-2.9-8.23-2,2.4-5.31,2.68-7.49,4.88C432.8,144.37,426.76,146,422.36,150.07Z" transform="translate(1.36 -109.4)" style="fill:#5b3107"/><path d="M584.9,308.37c6-3.31,12.64-5.05,19-7.47,4.3-1.63,8.74-2.91,12.92-4.88,1.4-.67,1.35-2.07,1.3-3.26-.08-1.66-1.38-1.75-2.72-1.7-4.38.17-8.58,1.33-12.79,2.37a108.75,108.75,0,0,0-19.34,6.31,11.79,11.79,0,0,0-1.53,1C582.89,303.27,582.67,306.33,584.9,308.37Z" transform="translate(1.36 -109.4)" style="fill:#ba6814"/><path d="M378,215.48c1,1.42,2.05.42,2.85-.15,5.05-3.67,10.75-6.29,15.76-10.05,3.79-2.85,8.14-4.89,11.85-7.9,1.29-1,2.48-2,2.18-3.93a5.67,5.67,0,0,0-1.93-3.79c-1.27-.91-2.13.7-3.13,1.3q-9.69,5.79-19.35,11.62a36.79,36.79,0,0,0-2.94,2.24C380.6,207.94,379.63,211.88,378,215.48Z" transform="translate(1.36 -109.4)" style="fill:#ba6814"/><path d="M157.35,379.76c.24-.29.41-.69.71-.84,4.86-2.43,4.93-2.51.56-5.64-4.14-3-8.92-4.78-13.49-6.95-3.49-1.65-6.89-3.5-10.29-5.29-5.32-2.81-11-4.92-16.22-7.83-3,1.51-5.79,3.29-9.23,3.51-1.21,1.7-2.89,3-3.8,5-.63,1.37-1.45,2.91-.26,4s2.91.82,4.45-.13a17.26,17.26,0,0,0,5.83-5.62c1.9-3.16,4.3-3,6.76-1.72,7.1,3.7,14.69,6.24,21.32,11.14C148.28,372.79,152.69,376.46,157.35,379.76Z" transform="translate(1.36 -109.4)" style="fill:#77430d"/><path d="M541.81,131.19c-5.57-1-10.89.55-16.21,1.76-4.89,1.11-9.68,2.66-14.58,3.75-2.73.6-2.9,1.63-1.21,3.47,1.83,2,3.73,3.94,5.61,5.91,2.25.24,4.14-.8,6.18-1.55,4.46-1.64,8.37-4.32,12.71-6.18C537.41,137,541.14,135.46,541.81,131.19Z" transform="translate(1.36 -109.4)" style="fill:#ba6814"/><path d="M541.81,131.19c-.67,4.27-4.4,5.84-7.5,7.16-4.34,1.86-8.25,4.54-12.71,6.18-2,.75-3.93,1.79-6.18,1.55.05,3.77,3.16,5.92,4.72,8.89.45.15,1.08.57,1.32.41,5.21-3.49,11.37-5.42,15.89-10.06,2.54-2.6,2.79-6.37,5.35-9,1.31-1.35,2.5-3,3.78-4.44A5.24,5.24,0,0,0,541.81,131.19Z" transform="translate(1.36 -109.4)" style="fill:#77430d"/><path d="M87.59,384.52c-.17-2.27,1.26-2.28,3-2.55,2.16-.33,4.59,1,6.49-1-2.6-1.74-5.7-1.45-8.57-1.86-1.89-.27-3.71-.83-5.62-1.06-3.44-.41-4.15-2.29-2.41-5.38.72-1.3,1.11-2.39.33-3.7a6.67,6.67,0,0,1-3.64,2.38c-3.59.78-6.33,3-9.21,5-.95,3.19,1.08,5.81,1.82,8.64.48,1.81,2.66.68,3.94.58C78.35,385.3,83.08,386.17,87.59,384.52Z" transform="translate(1.36 -109.4)" style="fill:#77430d"/><path d="M587.38,200c-3.16-1.38-5.41,1.42-8.19,1.93-7.58,1.39-14.64,4.89-22.27,6.27a5.08,5.08,0,0,0-2.66,1.89c-1,3,1.93,4.43,2.59,6.77.85.8,1.56,1.23,2.88.45,7.42-4.36,15.33-7.91,21.94-13.61C583.39,202.22,586.17,202.31,587.38,200Z" transform="translate(1.36 -109.4)" style="fill:#77430d"/><path d="M477,373.38c4,4.91,2.7,11-3.65,13.63-3.38,1.39-5.88,3.74-8.24,5.9-5.54,5.08-12.35,8.3-17.87,13.29-.72.65-1.73.44-2.34.87-1.35.93-3.71,1.4-2.63,4,6.38-3.95,12.46-8.38,19.09-11.95,2.78-1.5,5.15-3.76,7.71-5.67,4.09-3.05,8.9-5.1,12.41-8.94a33.61,33.61,0,0,0,3.09-3.66c3.67-5.37,1.25-8.12-5.15-10.07Z" transform="translate(1.36 -109.4)" style="fill:#77430d"/><path d="M451.9,499.34c-5.17,3.28-10.21,6.8-16.19,8.54-2.92,2.66-2.25,7.2-5.29,10-.89.81.53,1.64,1.66,1.27,4.14-1.34,8.35-2.51,12.35-4.19C448.65,513.13,452.51,504.6,451.9,499.34Z" transform="translate(1.36 -109.4)" style="fill:#5b3107"/><path d="M370.81,157.69c.56-.56,1-1,1.43-1.43.85-.81,1.6-1.6.52-2.8a1.75,1.75,0,0,0-2.83-.22c-3.87,3.19-8.47,5.26-12.65,8s-8.15,5.65-12.86,7.37c-1,.36-2.09,1.18-2,2.44.09,1.09,1.59.63,2,1.09,3.11,3.37,5.33,1.24,8-.79C358.55,166.66,365.05,162.54,370.81,157.69Z" transform="translate(1.36 -109.4)" style="fill:#5b3107"/><path d="M489.47,507.71c-2.21-2.77-4.89-.53-7.11-.28-7,.79-14,1.21-21,1.47-3,.11-6.2-.23-8.79,2-.4.55-.67,1.06.3,1.31,8.38,2.08,16.61,3.85,25.15-.07C481.66,510.4,485.36,508.39,489.47,507.71Z" transform="translate(1.36 -109.4)" style="fill:#77430d"/><path d="M515.91,465.63c.76-3.91-1.59-7.85.28-11.87.44-.94,1.39-2,1.15-3.33a6.06,6.06,0,0,0-3-1.68,12,12,0,0,1-6.44-3.63h0l-2.63,1.64c-1.34,3.12,1.81,4.94,2.33,7.64.69,3.52,3.1,6.7,4.77,10C513.25,465.68,514.57,465.68,515.91,465.63Z" transform="translate(1.36 -109.4)" style="fill:#5b3107"/><path d="M423,266.14c-1.48-5-.3-7.78,5.34-11.64a28.67,28.67,0,0,0,5.23-4.52c-7.15.6-13.08,4-18.64,8.23-1.87,1.42-2.06,2.92-.21,4.53.27.24.62.52.69.84C416.55,268.59,419.29,268.79,423,266.14Z" transform="translate(1.36 -109.4)" style="fill:#77430d"/><path d="M381.92,446.31c-7.51-7.5-15-15-22.55-22.46-.93-.92-1.61-2.77-3.57-1.72,6.2,5.55,9.3,13.3,14.08,19.86C373.61,447.11,375,447.76,381.92,446.31Z" transform="translate(1.36 -109.4)" style="fill:#5b3107"/><path d="M333.66,521l-25.93-2.7c3.47,4.33,8.37,6.54,13.18,8.89.59.29,1.21.51,1.73.12C326,524.73,330.55,524.09,333.66,521Z" transform="translate(1.36 -109.4)" style="fill:#77430d"/><path d="M391.67,169.28c7.21-7.94,16.87-11.83,26.36-16a8.16,8.16,0,0,0,1.23-.81,9,9,0,0,0-2.43-4.07c-6.68,4.73-13.38,9.45-20.95,12.7-1.64.7-2.06,3.74-4.71,2.46C387.66,165.79,389.46,167.55,391.67,169.28Z" transform="translate(1.36 -109.4)" style="fill:#77430d"/><path d="M150.5,471.1c-6.15,4-10.09,10.26-15.16,15.36-.91.92-2.3,1.59-2.15,3.24,1.28,1,2-.09,2.76-.81,4.52-4.2,9.14-8.2,14.86-10.84,1.46-.68,3.9-1.93,2.86-4.68l-3.17-2.19Z" transform="translate(1.36 -109.4)" style="fill:#5b3107"/><path d="M575.83,189.29c3.6,1.57,7.53.62,11.24,1.41,3.08.65,6.57-.19,9.07,2.54,1.41-1.79,4.1-.45,5.5-2.26-4.72-3.14-9.6-5.49-15.57-3.92C582.69,187.94,579.1,187.88,575.83,189.29Z" transform="translate(1.36 -109.4)" style="fill:#77430d"/><path d="M422.36,150.07c4.4-4,10.44-5.7,14.66-10,2.18-2.2,5.51-2.48,7.49-4.88l-.89-1.06c-4.09,3.24-9.27,4.22-13.81,6.58-3.5,1.83-6.85,3.64-9.66,6.41Z" transform="translate(1.36 -109.4)" style="fill:#77430d"/><path d="M530.42,454c.44.43.81,1.1,1.33,1.25,8.55,2.47,16.74,5.63,23.69,11.4-1.17-6.24-6-10.19-13.54-11a38.23,38.23,0,0,1-9.45-1.92A1.88,1.88,0,0,0,530.42,454Z" transform="translate(1.36 -109.4)" style="fill:#77430d"/><path d="M368.84,455.23a6.63,6.63,0,0,0,7.8,4.21c2.07-.45,5.41-4.86,5.22-6.87A25.87,25.87,0,0,0,368.84,455.23Z" transform="translate(1.36 -109.4)" style="fill:#5b3107"/><path d="M68,376.41c2.88-2,5.62-4.23,9.21-5A6.67,6.67,0,0,0,80.81,369c-4.3-.4-8.61-.77-12.92-1.21-1.71-.18-1.93,1-1.71,2.06C66.63,372.08,67.35,374.23,68,376.41Z" transform="translate(1.36 -109.4)" style="fill:#5b3107"/><path d="M477,373.38l2.42-2.62L478,369.3c-.11,0-.29,0-.32-.06a4,4,0,0,1-.21-.58,16.88,16.88,0,0,1-5.52-6.81,13.83,13.83,0,0,0-2.23-3.23c-1.57,2-1.09,4.1,0,6.12s2.44,3.92,2.22,6.38C473.38,372.33,474.17,375.2,477,373.38Z" transform="translate(1.36 -109.4)" style="fill:#ba6814"/><path d="M514.58,493c-2.77,5.12-3,11.22-6.44,16.09a1.1,1.1,0,0,0,.52,1.79c1,.41,1.59-.06,2-1,1.82-3.54,3.88-7,5.37-10.66.45-1.11,1.38-2.32,1.13-3.73Z" transform="translate(1.36 -109.4)" style="fill:#5b3107"/><path d="M514.58,493l2.63,2.53c1.56-1.78,1-4,.86-5.93-.18-3.26.41-6.58-.55-9.79-1.08-.26-1.7.45-2.35,1.1C514.2,484.86,514.45,488.9,514.58,493Z" transform="translate(1.36 -109.4)" style="fill:#ba6814"/><path d="M432.45,295.19c-2.54,3.74-2.34,12.39.38,16.19C436.47,305.89,435.32,300.52,432.45,295.19Z" transform="translate(1.36 -109.4)" style="fill:#5b3107"/><path d="M109.39,356.72c3.44-.22,6.28-2,9.23-3.51-.73-1.35-2.19-2.53-1.08-4.35-1.86-2-3.37-2-4.82.58C111.4,351.78,108.66,353.44,109.39,356.72Z" transform="translate(1.36 -109.4)" style="fill:#5b3107"/><path d="M515.17,480.86c.65-.65,1.27-1.36,2.35-1.1-.21-4.75-.19-9.52-1.61-14.13-1.34.05-2.66.05-3.55-1.2A64.14,64.14,0,0,1,515.17,480.86Z" transform="translate(1.36 -109.4)" style="fill:#77430d"/><path d="M378,215.48c1.67-3.6,2.64-7.54,5.29-10.66-3.84.26-6.28,3-9.05,5.14-.88.67-.15,1.56.44,2.18C375.73,213.27,376.85,214.37,378,215.48Z" transform="translate(1.36 -109.4)" style="fill:#77430d"/><path d="M144,399.63c-1.41.83-2.41.5-3.81-.49-2.3-1.62-4.24-4.48-7.78-3.4a22.66,22.66,0,0,0,6.16,6.58C141.69,404.77,142.4,401,144,399.63Z" transform="translate(1.36 -109.4)" style="fill:#77430d"/><path d="M503.44,510.16c-3.58-3.47-10.7-4.72-14-2.45,3.66,1.06,7.32,2.13,11,3.17A2.67,2.67,0,0,0,503.44,510.16Z" transform="translate(1.36 -109.4)" style="fill:#77430d"/><path d="M154.11,487.49c5.3-2.23,7.07-5.58,4.7-8.91C156.16,481,155.21,484.28,154.11,487.49Z" transform="translate(1.36 -109.4)" style="fill:#5b3107"/><path d="M269.58,481.13l6.35-6.33c-3.12-2.7-4-2.6-5.12,1C270.28,477.5,268.16,479,269.58,481.13Z" transform="translate(1.36 -109.4)" style="fill:#ba6814"/><path d="M507.89,445.12a12,12,0,0,0,6.44,3.63,6.06,6.06,0,0,1,3,1.68c.81-3.86-2.74-4-4.76-5.09A5.57,5.57,0,0,0,507.89,445.12Z" transform="translate(1.36 -109.4)" style="fill:#77430d"/><path d="M406.07,522c-1.25-1.25-2.49-2.51-3.73-3.76-1.93,1.4-.32,2.81,0,4.22C403.74,523.67,404.82,522.19,406.07,522Z" transform="translate(1.36 -109.4)" style="fill:#77430d"/><path d="M150.5,471.18l3.17,2.19c.5-.84,2.31-1.49,1.11-2.58A2.92,2.92,0,0,0,150.5,471.18Z" transform="translate(1.36 -109.4)" style="fill:#644100"/><path d="M299.38,488.89c-1-1-2.32-2-3.2-.41-.72,1.34.56,2.49,1.92,3.11A4.77,4.77,0,0,0,299.38,488.89Z" transform="translate(1.36 -109.4)" style="fill:#77430d"/><path d="M422.27,273l1.31-2.54a1.43,1.43,0,0,0-2.39.59C420.66,272.13,421.57,272.55,422.27,273Z" transform="translate(1.36 -109.4)" style="fill:#5b3107"/><path d="M557.06,469.5c-1.39,1.07-.93,2,.19,2.93C558.44,471.37,558,470.42,557.06,469.5Z" transform="translate(1.36 -109.4)" style="fill:#77430d"/><path d="M505.26,446.76l2.63-1.64c-.82-1.2-1.84,0-2.75-.22l-.26.23Z" transform="translate(1.36 -109.4)" style="fill:#77430d"/><path d="M295.47,461.65c-.9.72-1.66,1.47-.63,2.65C295.55,463.53,296.42,462.81,295.47,461.65Z" transform="translate(1.36 -109.4)" style="fill:#5b3107"/><path d="M427,489.17l1.3,1.23c.24-.52.61-1.12-.07-1.48C428,488.77,427.44,489.07,427,489.17Z" transform="translate(1.36 -109.4)" style="fill:#77430d"/><path d="M98.13,381.09a1.27,1.27,0,0,0,2.07.06C99.53,380.36,98.85,380.26,98.13,381.09Z" transform="translate(1.36 -109.4)" style="fill:#77430d"/><path d="M77.1,399.17c.36.1.82.8,1,.1.16-.47-.51-.66-1-.67C77.12,398.79,77.11,399,77.1,399.17Z" transform="translate(1.36 -109.4)" style="fill:#77430d"/><path d="M146.85,397.17c-.39-.06-.64.08-.66.51Z" transform="translate(1.36 -109.4)" style="fill:#77430d"/><path d="M158.63,381.44a3.05,3.05,0,0,0-.17-.61c0-.07-.2-.07-.3-.11Z" transform="translate(1.36 -109.4)" style="fill:#77430d"/><path d="M529.89,453.66a2.54,2.54,0,0,0,.26.49s.21-.08.32-.12A1.69,1.69,0,0,0,529.89,453.66Z" transform="translate(1.36 -109.4)" style="fill:#77430d"/><path d="M504.88,445.13l.26-.23C504.67,444.54,504.62,444.66,504.88,445.13Z" transform="translate(1.36 -109.4)" style="fill:#5b3107"/><path d="M136.23,509.57c-.54-.1-.58.16-.41.57A1.54,1.54,0,0,0,136.23,509.57Z" transform="translate(1.36 -109.4)" style="fill:#77430d"/><path d="M477.42,368.66a4,4,0,0,0,.21.58c0,.06.21,0,.32.06Z" transform="translate(1.36 -109.4)" style="fill:#77430d"/><path d="M394,448.88l-.5.05.5.08Z" transform="translate(1.36 -109.4)" style="fill:#77430d"/><path d="M447.79,336c-2.85-2.41-6.34-6.72-11.65-8.88-4.44-1.8-8.93-1.73-13.57-1.63-8.6.19-16,3.71-22.87,8.33-2.24,1.51-3.48,4.58-5,7-5.94,9.16-8.53,19.12-3.94,29.59,1.37,3.14,4.25,5.7,6.73,8.25,5.57,5.72,11.65,10.72,19.75,12.56a11.51,11.51,0,0,0,5.77-.08c4.21-1.14,8.93-1.13,12.5-3.69,6-4.33,13-7.85,15.37-16,1-3.57,2.83-6.88,3.73-10.6,1-4.19.07-8.24.38-12.19C455.39,343,452.22,340.35,447.79,336Zm-3.86,2.48.16-.16c1.75,1.75,3.41,3.59,5.26,5.22,3.54,3.12,4.16,7.72,3.64,11.5a48.82,48.82,0,0,1-6.64,18.39c-4.48,7.36-11.6,11.34-19.86,14-8.08,2.56-14.26-.68-20.09-5A50.69,50.69,0,0,1,396,371.87c-2.34-3.19-4.62-6.68-4.81-11.12-.28-6.57,2.65-12,5.71-17.31,5.11-8.83,13.59-13.33,23.19-15.09,5.64-1,11.83-1.05,16.76,3.1C439.37,333.59,441.57,336.12,443.93,338.47Z" transform="translate(1.36 -109.4)" style="fill:#060503"/><path d="M368.05,223.7c-2.05-3.95-7-4.95-10.07-8.29a2.7,2.7,0,0,0-3.08-.68c-7.42,3.59-15.11,6.45-22.18,11-6.91,4.44-12.69,10-18.79,15.23-4.43,3.82-5.36,9-2.38,14.25,3.17,5.59,6.11,11.52,11.49,15.45a44.13,44.13,0,0,0,9.38,5.47c4.55,1.84,8.36-.58,12.11-3.07,6.42-4.26,12.73-8.65,18.92-13.26,4.91-3.66,10.27-6.64,13.64-12a63.53,63.53,0,0,0,3.44-6.79,3.13,3.13,0,0,0-.93-3.72C375.14,233.43,373.15,227.51,368.05,223.7Zm2.43,26.62c-2.66,2.49-5.8,4.45-8.54,6.72-7.12,5.89-15.31,10.11-22.55,15.76-1.62,1.27-3.79,2.17-5.78.86-4.25-2.8-9.27-4.58-12.35-8.94-2.1-3-4.06-6-6-9.08-3-4.8-3-7.84.19-11.72,1-1.2,2.5-2,3.59-3.1a87.73,87.73,0,0,1,28.07-19.58c4.71-2.06,9.76-5.31,13.8,1.26a2,2,0,0,0,1.21.78c3.3.51,5.44,3.13,6.59,5.47,1.7,3.48,4.4,5.81,6.83,8.49,1.38,1.52,1.66,2.78,1,4.94C375.42,245.72,372.78,247.82,370.48,250.32Z" transform="translate(1.36 -109.4)" style="fill:#060503"/><path d="M370.07,288.53c-5.3,3.52-7.81,9.67-11.42,15-1.76,2.6.2,4.74.29,7.05.28,7.48,1.86,14.61,9.49,18.44A27.46,27.46,0,0,0,384,331.67c13-1.38,22.51-8.82,30.21-18.79,3.34-4.32,6.62-9,6.1-14.83-.69-7.7-1.54-15.61-9.67-19.58a32.62,32.62,0,0,0-16.53-2.91C384.12,276.14,376.61,280.89,370.07,288.53Zm2.69,1.41a40,40,0,0,1,12.58-9.12c8-3.8,15.65-3.51,23.48.08,4.5,2.06,5.76,6.18,7.45,10.34,2.59,6.37,1.24,12.11-2.48,17.12-5,6.79-10.73,12.89-18.66,16.79-7.18,3.53-13.75,5.08-21.87,2.55-9.37-2.91-12.38-12.32-11.27-20.27C363,300.25,367.38,295,372.76,289.94Z" transform="translate(1.36 -109.4)" style="fill:#060503"/><path d="M285.66,225c2.65,5.63,7.44,7.58,13.3,7.92,2.73.15,5.44.73,8.16-.06a28.3,28.3,0,0,0,16.1-6.88,90.88,90.88,0,0,0,14.49-15.66c1.45-2,.74-4.62,2.56-6.32q1-5.78,2.06-11.55c-1.19-9.59-10.36-14.75-20.54-14.18-6.1.34-11.24,2.1-15.91,6.28-5.44,4.88-11.13,9.47-15.14,15.63-3.09,4.73-3.67,10.54-5.93,15.69-.69,1.59.5,4,.8,6C285.76,222.9,286.73,223.93,285.66,225Zm50.72-37.15c2.59,1.38,3.77,3.59,3.17,6.41-1.09,5.09-2,10.43-5,14.68-6.16,8.62-13.15,16.52-23.63,20.17-6.61,2.29-13.11,2.13-19.21-1.53-2-1.21-3.8-2.88-2.82-5.73-3.68-4.7.57-8.61,1.71-12.6.79-2.75,1.28-5.81,3.39-8.39,3.85-4.71,8.45-8.56,12.7-12.8a21.82,21.82,0,0,1,18.92-6.61C330,181.92,334.72,182.47,336.38,187.83Z" transform="translate(1.36 -109.4)" style="fill:#060503"/><path d="M342.33,192.43q-1,5.77-2.06,11.55c2.92-.81,4.43-3.32,6.11-5.45,1.35-1.7-1.72-3.16-.9-5.09C344.55,192.75,343.84,191.37,342.33,192.43Z" transform="translate(1.36 -109.4)" style="fill:#ba6814"/><path d="M312.91,350.74a89,89,0,0,0,12.24-14.47c4.94-7.26,9.09-15.16,7.59-24.43-.5-3-.48-6.39-2.63-9.06-2.34-2.92-3.1-6.91-6.35-9.22-7.64-5.45-15.38-9.26-25.52-7.4a81.53,81.53,0,0,0-26,9.44c-7.27,4.14-14.28,8.74-18.73,16.08-4.73,7.81-10.51,15.4-9.74,25.24a23.44,23.44,0,0,0,5.79,13.57c1.74,2,2.19,4.53,4,6.42,6.26,6.49,14.13,8.32,22.76,8.81,10.13.57,19-3.14,27.58-7.65A31.15,31.15,0,0,0,312.91,350.74Zm-52.12-43.4c3.45-2.46,6.5-4.77,9.82-6.88a92.55,92.55,0,0,1,25.22-11.22c10.46-2.89,18.92.91,26.68,7.42,1.74,1.45,2,3.77,3.27,5.59,4,5.87,6.16,12.24,3.55,19.58a50.73,50.73,0,0,1-9.78,16.47c-6.69,7.57-12.87,15.93-22.77,20-7.31,3-14.52,5.74-22.75,4.76a30.79,30.79,0,0,1-18.37-8.59c-2.28-2.21-3.67-5.36-5.31-8.18-3-5.21-4.53-10.88-2.81-16.75C250.06,321,255.77,314.16,260.79,307.34Z" transform="translate(1.36 -109.4)" style="fill:#060503"/><path d="M402.34,518.24a1.35,1.35,0,0,0,0-2.1A1.35,1.35,0,0,0,402.34,518.24Z" transform="translate(1.36 -109.4)" style="fill:#77430d"/><path d="M443.93,338.47c-2.36-2.35-4.56-4.88-7.09-7-4.93-4.15-11.12-4.13-16.76-3.1-9.6,1.76-18.08,6.26-23.19,15.09-3.06,5.29-6,10.74-5.71,17.31.19,4.44,2.47,7.93,4.81,11.12a50.69,50.69,0,0,0,10.41,10.48c5.83,4.35,12,7.59,20.09,5,8.26-2.62,15.38-6.6,19.86-14A48.82,48.82,0,0,0,453,355c.52-3.78-.1-8.38-3.64-11.5-1.85-1.63-3.51-3.47-5.26-5.22Zm-5.68,29.62c-3.64,4.05-8.14,6.43-13.25,8.29-4.35,1.59-8.32.67-12.52.42-5.17-.31-7.34-3.54-8.72-7.88-1.83-5.73-2.75-11.72.73-16.87,5.21-7.71,11.69-14,21.77-15.21,3.84-.46,7,1.17,10.54,1.69,5.06.76,5.44,4.33,6.59,8C446,354.84,445.32,362.2,438.25,368.09Z" transform="translate(1.36 -109.4)" style="fill:#5b3107"/><path d="M372.76,289.94C367.38,295,363,300.25,362,307.43c-1.11,7.95,1.9,17.36,11.27,20.27,8.12,2.53,14.69,1,21.87-2.55,7.93-3.9,13.64-10,18.66-16.79,3.72-5,5.07-10.75,2.48-17.12-1.69-4.16-2.95-8.28-7.45-10.34-7.83-3.59-15.52-3.88-23.48-.08A40,40,0,0,0,372.76,289.94Zm4.3,1.83a26.71,26.71,0,0,1,11.83-7.2c3.25-1,6.48-2.1,9.93-1.56,3.62.57,6.25,2.3,7.66,6,.81,2.11,3.14,3.87,3.25,6.1.4,8.35-1.41,15.46-9.14,20.87a37.89,37.89,0,0,1-16.43,6.5c-7.11,1.14-14.47-5.14-14.67-11.15C369.23,303.64,372.16,297.36,377.06,291.77Z" transform="translate(1.36 -109.4)" style="fill:#5b3107"/><path d="M288.86,221.83c-1,2.85.8,4.52,2.82,5.73,6.1,3.66,12.6,3.82,19.21,1.53,10.48-3.65,17.47-11.55,23.63-20.17,3-4.25,3.94-9.59,5-14.68.6-2.82-.58-5-3.16-6.41l-7.2,3.16c5.42,5.46,2.47,15.34-.82,20.47-4.7,7.33-12.18,10.33-20.59,11-5.73.45-10.35-3.35-10.74-8.4Z" transform="translate(1.36 -109.4)" style="fill:#77430d"/><path d="M329.19,191l7.2-3.16c-1.67-5.36-6.44-5.91-10.81-6.4A21.82,21.82,0,0,0,306.66,188c-4.25,4.24-8.85,8.09-12.7,12.8-2.11,2.58-2.6,5.64-3.39,8.39-1.14,4-5.39,7.9-1.71,12.6L297,214c.34-1.66.75-3.31,1-5,.74-4.86,3.93-8.61,6.33-12.53,2.95-4.81,7.94-7.38,13.87-8.17C322.43,187.8,325.76,189.24,329.19,191Z" transform="translate(1.36 -109.4)" style="fill:#5b3107"/><path d="M260.79,307.34c-5,6.82-10.73,13.61-13.25,22.18-1.72,5.87-.21,11.54,2.81,16.75,1.64,2.82,3,6,5.31,8.18A30.79,30.79,0,0,0,274,363c8.23,1,15.44-1.77,22.75-4.76,9.9-4,16.08-12.41,22.77-20a50.73,50.73,0,0,0,9.78-16.47c2.61-7.34.46-13.71-3.55-19.58-1.24-1.82-1.53-4.14-3.27-5.59-7.76-6.51-16.22-10.31-26.68-7.42a92.55,92.55,0,0,0-25.22,11.22C267.29,302.57,264.24,304.88,260.79,307.34Zm-3.11,42.2c-1.91-2-3.63-3.9-4.2-6.74-.89-4.46-1.15-8.69.41-13.2,2.56-7.39,5.54-14.45,11.77-19.47,10.21-8.23,21.49-14.26,34.9-14.71,3.49-.12,7.37-.65,10.67,1.44a19.07,19.07,0,0,1,8.84,14.9c.91,10.73-4.15,19.7-10.73,27.78-2.32,2.85-6,4.07-8.85,6.31-6.43,5-14,7.47-22,9.15S263.62,355.12,257.68,349.54Z" transform="translate(1.36 -109.4)" style="fill:#644100"/><path class="Reality" d="M370.48,250.32c2.3-2.5,4.94-4.6,6.06-8.14.67-2.16.39-3.42-1-4.94-2.43-2.68-5.13-5-6.83-8.49-1.15-2.34-3.29-5-6.59-5.47a2,2,0,0,1-1.21-.78c-4-6.57-9.09-3.32-13.8-1.26a87.73,87.73,0,0,0-28.07,19.58c-1.09,1.14-2.61,1.9-3.59,3.1-3.16,3.88-3.2,6.92-.19,11.72,1.93,3.08,3.89,6.13,6,9.08,3.08,4.36,8.1,6.14,12.35,8.94,2,1.31,4.16.41,5.78-.86,7.24-5.65,15.43-9.87,22.55-15.76C364.68,254.77,367.82,252.81,370.48,250.32Z" transform="translate(1.36 -109.4)" style="fill:#c1272d"/><path class="Time" d="M361.25,516.84c1.3,7.3,5.88,12,11.55,16.2,3.05,2.26,6,1.17,9,.6,5.52-1.06,9.4-5,13.47-8.43,1.53-1.3,2.73-2.24,4.81-.9s.8-2,2.25-1.86c-.3-1.41-1.91-2.82,0-4.22h0a1.35,1.35,0,0,1,0-2.1h0c-1.43-2-1.68-4.54-2.6-6.78-2.59-6.27-14.38-11.4-21.84-9.12-5.38,1.65-8.83,5-12.26,8.81-.39.43-4,6.27-4.64,6" transform="translate(1.36 -109.4)" style="fill:#009245"/><path class="Power" d="M438.25,368.09c7.07-5.89,7.74-13.25,5.14-21.55-1.15-3.68-1.53-7.25-6.59-8-3.5-.52-6.7-2.15-10.54-1.69-10.08,1.18-16.56,7.5-21.77,15.21-3.48,5.15-2.56,11.14-.73,16.87,1.38,4.34,3.55,7.57,8.72,7.88,4.2.25,8.17,1.17,12.52-.42C430.11,374.52,434.61,372.14,438.25,368.09Z" transform="translate(1.36 -109.4)" style="fill:#93278f"/><path class="Space" d="M377.06,291.77c-4.9,5.59-7.83,11.87-7.57,19.58.2,6,7.56,12.29,14.67,11.15a37.89,37.89,0,0,0,16.43-6.5c7.73-5.41,9.54-12.52,9.14-20.87-.11-2.23-2.44-4-3.25-6.1-1.41-3.72-4-5.45-7.66-6-3.45-.54-6.68.53-9.93,1.56A26.71,26.71,0,0,0,377.06,291.77Z" transform="translate(1.36 -109.4)" style="fill:#0071bc"/><path class="Soul" d="M329.19,191c-3.43-1.75-6.76-3.19-10.95-2.63-5.93.79-10.92,3.36-13.87,8.17-2.4,3.92-5.59,7.67-6.33,12.53-.25,1.67-.66,3.32-1,5,.39,5.05,5,8.85,10.74,8.4,8.41-.65,15.89-3.65,20.59-11C331.66,206.33,334.61,196.45,329.19,191Z" transform="translate(1.36 -109.4)" style="fill:#f15a24"/><path class="Mind" d="M257.68,349.54c5.94,5.58,12.83,7.15,20.84,5.46s15.54-4.16,22-9.15c2.89-2.24,6.53-3.46,8.85-6.31,6.58-8.08,11.64-17.05,10.73-27.78a19.07,19.07,0,0,0-8.84-14.9c-3.3-2.09-7.18-1.56-10.67-1.44-13.41.45-24.69,6.48-34.9,14.71-6.23,5-9.21,12.08-11.77,19.47-1.56,4.51-1.3,8.74-.41,13.2C254.05,345.64,255.77,347.59,257.68,349.54Z" transform="translate(1.36 -109.4)" style="fill:#fbb03b"/></svg>
